<mxfile host="app.diagrams.net" modified="2022-09-28T18:09:40.813Z" agent="5.0 (Windows)" etag="YZZSzV39dsBvq1faDBvI" version="20.3.7" type="github" pages="2">
  <diagram id="C5RBs43oDa-KdzZeNtuy" name="Page-1">
    <mxGraphModel dx="870" dy="576" grid="1" gridSize="10" guides="1" tooltips="1" connect="1" arrows="1" fold="1" page="1" pageScale="1" pageWidth="827" pageHeight="1169" math="0" shadow="0">
      <root>
        <mxCell id="WIyWlLk6GJQsqaUBKTNV-0" />
        <mxCell id="WIyWlLk6GJQsqaUBKTNV-1" parent="WIyWlLk6GJQsqaUBKTNV-0" />
        <mxCell id="zkfFHV4jXpPFQw0GAbJ--0" value="Person" style="swimlane;fontStyle=2;align=center;verticalAlign=top;childLayout=stackLayout;horizontal=1;startSize=26;horizontalStack=0;resizeParent=1;resizeLast=0;collapsible=1;marginBottom=0;rounded=0;shadow=0;strokeWidth=1;" parent="WIyWlLk6GJQsqaUBKTNV-1" vertex="1">
          <mxGeometry x="220" y="120" width="160" height="138" as="geometry">
            <mxRectangle x="230" y="140" width="160" height="26" as="alternateBounds" />
          </mxGeometry>
        </mxCell>
        <mxCell id="zkfFHV4jXpPFQw0GAbJ--1" value="Name" style="text;align=left;verticalAlign=top;spacingLeft=4;spacingRight=4;overflow=hidden;rotatable=0;points=[[0,0.5],[1,0.5]];portConstraint=eastwest;" parent="zkfFHV4jXpPFQw0GAbJ--0" vertex="1">
          <mxGeometry y="26" width="160" height="26" as="geometry" />
        </mxCell>
        <mxCell id="zkfFHV4jXpPFQw0GAbJ--2" value="Phone Number" style="text;align=left;verticalAlign=top;spacingLeft=4;spacingRight=4;overflow=hidden;rotatable=0;points=[[0,0.5],[1,0.5]];portConstraint=eastwest;rounded=0;shadow=0;html=0;" parent="zkfFHV4jXpPFQw0GAbJ--0" vertex="1">
          <mxGeometry y="52" width="160" height="26" as="geometry" />
        </mxCell>
        <mxCell id="zkfFHV4jXpPFQw0GAbJ--3" value="Email Address" style="text;align=left;verticalAlign=top;spacingLeft=4;spacingRight=4;overflow=hidden;rotatable=0;points=[[0,0.5],[1,0.5]];portConstraint=eastwest;rounded=0;shadow=0;html=0;" parent="zkfFHV4jXpPFQw0GAbJ--0" vertex="1">
          <mxGeometry y="78" width="160" height="26" as="geometry" />
        </mxCell>
        <mxCell id="zkfFHV4jXpPFQw0GAbJ--4" value="" style="line;html=1;strokeWidth=1;align=left;verticalAlign=middle;spacingTop=-1;spacingLeft=3;spacingRight=3;rotatable=0;labelPosition=right;points=[];portConstraint=eastwest;" parent="zkfFHV4jXpPFQw0GAbJ--0" vertex="1">
          <mxGeometry y="104" width="160" height="8" as="geometry" />
        </mxCell>
        <mxCell id="zkfFHV4jXpPFQw0GAbJ--5" value="Purchase Parking Pass" style="text;align=left;verticalAlign=top;spacingLeft=4;spacingRight=4;overflow=hidden;rotatable=0;points=[[0,0.5],[1,0.5]];portConstraint=eastwest;" parent="zkfFHV4jXpPFQw0GAbJ--0" vertex="1">
          <mxGeometry y="112" width="160" height="26" as="geometry" />
        </mxCell>
        <mxCell id="zkfFHV4jXpPFQw0GAbJ--6" value="Student" style="swimlane;fontStyle=0;align=center;verticalAlign=top;childLayout=stackLayout;horizontal=1;startSize=26;horizontalStack=0;resizeParent=1;resizeLast=0;collapsible=1;marginBottom=0;rounded=0;shadow=0;strokeWidth=1;" parent="WIyWlLk6GJQsqaUBKTNV-1" vertex="1">
          <mxGeometry x="120" y="360" width="160" height="138" as="geometry">
            <mxRectangle x="130" y="380" width="160" height="26" as="alternateBounds" />
          </mxGeometry>
        </mxCell>
        <mxCell id="zkfFHV4jXpPFQw0GAbJ--7" value="Student Number" style="text;align=left;verticalAlign=top;spacingLeft=4;spacingRight=4;overflow=hidden;rotatable=0;points=[[0,0.5],[1,0.5]];portConstraint=eastwest;" parent="zkfFHV4jXpPFQw0GAbJ--6" vertex="1">
          <mxGeometry y="26" width="160" height="26" as="geometry" />
        </mxCell>
        <mxCell id="zkfFHV4jXpPFQw0GAbJ--8" value="Average Mark" style="text;align=left;verticalAlign=top;spacingLeft=4;spacingRight=4;overflow=hidden;rotatable=0;points=[[0,0.5],[1,0.5]];portConstraint=eastwest;rounded=0;shadow=0;html=0;" parent="zkfFHV4jXpPFQw0GAbJ--6" vertex="1">
          <mxGeometry y="52" width="160" height="26" as="geometry" />
        </mxCell>
        <mxCell id="zkfFHV4jXpPFQw0GAbJ--9" value="" style="line;html=1;strokeWidth=1;align=left;verticalAlign=middle;spacingTop=-1;spacingLeft=3;spacingRight=3;rotatable=0;labelPosition=right;points=[];portConstraint=eastwest;" parent="zkfFHV4jXpPFQw0GAbJ--6" vertex="1">
          <mxGeometry y="78" width="160" height="8" as="geometry" />
        </mxCell>
        <mxCell id="zkfFHV4jXpPFQw0GAbJ--10" value="Is Eligible To Enroll" style="text;align=left;verticalAlign=top;spacingLeft=4;spacingRight=4;overflow=hidden;rotatable=0;points=[[0,0.5],[1,0.5]];portConstraint=eastwest;fontStyle=4" parent="zkfFHV4jXpPFQw0GAbJ--6" vertex="1">
          <mxGeometry y="86" width="160" height="26" as="geometry" />
        </mxCell>
        <mxCell id="zkfFHV4jXpPFQw0GAbJ--11" value="Get Seminars Taken" style="text;align=left;verticalAlign=top;spacingLeft=4;spacingRight=4;overflow=hidden;rotatable=0;points=[[0,0.5],[1,0.5]];portConstraint=eastwest;" parent="zkfFHV4jXpPFQw0GAbJ--6" vertex="1">
          <mxGeometry y="112" width="160" height="26" as="geometry" />
        </mxCell>
        <mxCell id="zkfFHV4jXpPFQw0GAbJ--12" value="" style="endArrow=block;endSize=10;endFill=0;shadow=0;strokeWidth=1;rounded=0;edgeStyle=elbowEdgeStyle;elbow=vertical;" parent="WIyWlLk6GJQsqaUBKTNV-1" source="zkfFHV4jXpPFQw0GAbJ--6" target="zkfFHV4jXpPFQw0GAbJ--0" edge="1">
          <mxGeometry width="160" relative="1" as="geometry">
            <mxPoint x="200" y="203" as="sourcePoint" />
            <mxPoint x="200" y="203" as="targetPoint" />
          </mxGeometry>
        </mxCell>
        <mxCell id="zkfFHV4jXpPFQw0GAbJ--13" value="Professor" style="swimlane;fontStyle=0;align=center;verticalAlign=top;childLayout=stackLayout;horizontal=1;startSize=26;horizontalStack=0;resizeParent=1;resizeLast=0;collapsible=1;marginBottom=0;rounded=0;shadow=0;strokeWidth=1;" parent="WIyWlLk6GJQsqaUBKTNV-1" vertex="1">
          <mxGeometry x="330" y="360" width="160" height="70" as="geometry">
            <mxRectangle x="340" y="380" width="170" height="26" as="alternateBounds" />
          </mxGeometry>
        </mxCell>
        <mxCell id="zkfFHV4jXpPFQw0GAbJ--14" value="Salary" style="text;align=left;verticalAlign=top;spacingLeft=4;spacingRight=4;overflow=hidden;rotatable=0;points=[[0,0.5],[1,0.5]];portConstraint=eastwest;" parent="zkfFHV4jXpPFQw0GAbJ--13" vertex="1">
          <mxGeometry y="26" width="160" height="26" as="geometry" />
        </mxCell>
        <mxCell id="zkfFHV4jXpPFQw0GAbJ--15" value="" style="line;html=1;strokeWidth=1;align=left;verticalAlign=middle;spacingTop=-1;spacingLeft=3;spacingRight=3;rotatable=0;labelPosition=right;points=[];portConstraint=eastwest;" parent="zkfFHV4jXpPFQw0GAbJ--13" vertex="1">
          <mxGeometry y="52" width="160" height="8" as="geometry" />
        </mxCell>
        <mxCell id="zkfFHV4jXpPFQw0GAbJ--16" value="" style="endArrow=block;endSize=10;endFill=0;shadow=0;strokeWidth=1;rounded=0;edgeStyle=elbowEdgeStyle;elbow=vertical;" parent="WIyWlLk6GJQsqaUBKTNV-1" source="zkfFHV4jXpPFQw0GAbJ--13" target="zkfFHV4jXpPFQw0GAbJ--0" edge="1">
          <mxGeometry width="160" relative="1" as="geometry">
            <mxPoint x="210" y="373" as="sourcePoint" />
            <mxPoint x="310" y="271" as="targetPoint" />
          </mxGeometry>
        </mxCell>
        <mxCell id="zkfFHV4jXpPFQw0GAbJ--17" value="Address" style="swimlane;fontStyle=0;align=center;verticalAlign=top;childLayout=stackLayout;horizontal=1;startSize=26;horizontalStack=0;resizeParent=1;resizeLast=0;collapsible=1;marginBottom=0;rounded=0;shadow=0;strokeWidth=1;" parent="WIyWlLk6GJQsqaUBKTNV-1" vertex="1">
          <mxGeometry x="508" y="120" width="160" height="216" as="geometry">
            <mxRectangle x="550" y="140" width="160" height="26" as="alternateBounds" />
          </mxGeometry>
        </mxCell>
        <mxCell id="zkfFHV4jXpPFQw0GAbJ--18" value="Street" style="text;align=left;verticalAlign=top;spacingLeft=4;spacingRight=4;overflow=hidden;rotatable=0;points=[[0,0.5],[1,0.5]];portConstraint=eastwest;" parent="zkfFHV4jXpPFQw0GAbJ--17" vertex="1">
          <mxGeometry y="26" width="160" height="26" as="geometry" />
        </mxCell>
        <mxCell id="zkfFHV4jXpPFQw0GAbJ--19" value="City" style="text;align=left;verticalAlign=top;spacingLeft=4;spacingRight=4;overflow=hidden;rotatable=0;points=[[0,0.5],[1,0.5]];portConstraint=eastwest;rounded=0;shadow=0;html=0;" parent="zkfFHV4jXpPFQw0GAbJ--17" vertex="1">
          <mxGeometry y="52" width="160" height="26" as="geometry" />
        </mxCell>
        <mxCell id="zkfFHV4jXpPFQw0GAbJ--20" value="State" style="text;align=left;verticalAlign=top;spacingLeft=4;spacingRight=4;overflow=hidden;rotatable=0;points=[[0,0.5],[1,0.5]];portConstraint=eastwest;rounded=0;shadow=0;html=0;" parent="zkfFHV4jXpPFQw0GAbJ--17" vertex="1">
          <mxGeometry y="78" width="160" height="26" as="geometry" />
        </mxCell>
        <mxCell id="zkfFHV4jXpPFQw0GAbJ--21" value="Postal Code" style="text;align=left;verticalAlign=top;spacingLeft=4;spacingRight=4;overflow=hidden;rotatable=0;points=[[0,0.5],[1,0.5]];portConstraint=eastwest;rounded=0;shadow=0;html=0;" parent="zkfFHV4jXpPFQw0GAbJ--17" vertex="1">
          <mxGeometry y="104" width="160" height="26" as="geometry" />
        </mxCell>
        <mxCell id="zkfFHV4jXpPFQw0GAbJ--22" value="Country" style="text;align=left;verticalAlign=top;spacingLeft=4;spacingRight=4;overflow=hidden;rotatable=0;points=[[0,0.5],[1,0.5]];portConstraint=eastwest;rounded=0;shadow=0;html=0;" parent="zkfFHV4jXpPFQw0GAbJ--17" vertex="1">
          <mxGeometry y="130" width="160" height="26" as="geometry" />
        </mxCell>
        <mxCell id="zkfFHV4jXpPFQw0GAbJ--23" value="" style="line;html=1;strokeWidth=1;align=left;verticalAlign=middle;spacingTop=-1;spacingLeft=3;spacingRight=3;rotatable=0;labelPosition=right;points=[];portConstraint=eastwest;" parent="zkfFHV4jXpPFQw0GAbJ--17" vertex="1">
          <mxGeometry y="156" width="160" height="8" as="geometry" />
        </mxCell>
        <mxCell id="zkfFHV4jXpPFQw0GAbJ--24" value="Validate" style="text;align=left;verticalAlign=top;spacingLeft=4;spacingRight=4;overflow=hidden;rotatable=0;points=[[0,0.5],[1,0.5]];portConstraint=eastwest;" parent="zkfFHV4jXpPFQw0GAbJ--17" vertex="1">
          <mxGeometry y="164" width="160" height="26" as="geometry" />
        </mxCell>
        <mxCell id="zkfFHV4jXpPFQw0GAbJ--25" value="Output As Label" style="text;align=left;verticalAlign=top;spacingLeft=4;spacingRight=4;overflow=hidden;rotatable=0;points=[[0,0.5],[1,0.5]];portConstraint=eastwest;" parent="zkfFHV4jXpPFQw0GAbJ--17" vertex="1">
          <mxGeometry y="190" width="160" height="26" as="geometry" />
        </mxCell>
        <mxCell id="zkfFHV4jXpPFQw0GAbJ--26" value="" style="endArrow=open;shadow=0;strokeWidth=1;rounded=0;endFill=1;edgeStyle=elbowEdgeStyle;elbow=vertical;" parent="WIyWlLk6GJQsqaUBKTNV-1" source="zkfFHV4jXpPFQw0GAbJ--0" target="zkfFHV4jXpPFQw0GAbJ--17" edge="1">
          <mxGeometry x="0.5" y="41" relative="1" as="geometry">
            <mxPoint x="380" y="192" as="sourcePoint" />
            <mxPoint x="540" y="192" as="targetPoint" />
            <mxPoint x="-40" y="32" as="offset" />
          </mxGeometry>
        </mxCell>
        <mxCell id="zkfFHV4jXpPFQw0GAbJ--27" value="0..1" style="resizable=0;align=left;verticalAlign=bottom;labelBackgroundColor=none;fontSize=12;" parent="zkfFHV4jXpPFQw0GAbJ--26" connectable="0" vertex="1">
          <mxGeometry x="-1" relative="1" as="geometry">
            <mxPoint y="4" as="offset" />
          </mxGeometry>
        </mxCell>
        <mxCell id="zkfFHV4jXpPFQw0GAbJ--28" value="1" style="resizable=0;align=right;verticalAlign=bottom;labelBackgroundColor=none;fontSize=12;" parent="zkfFHV4jXpPFQw0GAbJ--26" connectable="0" vertex="1">
          <mxGeometry x="1" relative="1" as="geometry">
            <mxPoint x="-7" y="4" as="offset" />
          </mxGeometry>
        </mxCell>
        <mxCell id="zkfFHV4jXpPFQw0GAbJ--29" value="lives at" style="text;html=1;resizable=0;points=[];;align=center;verticalAlign=middle;labelBackgroundColor=none;rounded=0;shadow=0;strokeWidth=1;fontSize=12;" parent="zkfFHV4jXpPFQw0GAbJ--26" vertex="1" connectable="0">
          <mxGeometry x="0.5" y="49" relative="1" as="geometry">
            <mxPoint x="-38" y="40" as="offset" />
          </mxGeometry>
        </mxCell>
        <mxCell id="swa_vDoc6bK3scKjg6VR-0" value="scrinklemink" style="ellipse;shape=cloud;whiteSpace=wrap;html=1;" vertex="1" parent="WIyWlLk6GJQsqaUBKTNV-1">
          <mxGeometry x="70" y="190" width="120" height="80" as="geometry" />
        </mxCell>
      </root>
    </mxGraphModel>
  </diagram>
  <diagram id="6f_2gEAI2ScfnmAaK_dm" name="Page-2">
    <mxGraphModel dx="791" dy="524" grid="1" gridSize="10" guides="1" tooltips="1" connect="1" arrows="1" fold="1" page="1" pageScale="1" pageWidth="850" pageHeight="1100" math="0" shadow="0">
      <root>
        <mxCell id="0" />
        <mxCell id="1" parent="0" />
        <mxCell id="iqdBXL-8VNj3FP1n8Vjj-1" value="Map" style="ellipse;whiteSpace=wrap;html=1;aspect=fixed;" vertex="1" parent="1">
          <mxGeometry x="180" y="240" width="80" height="80" as="geometry" />
        </mxCell>
        <mxCell id="iqdBXL-8VNj3FP1n8Vjj-2" value="External Module Communication" style="whiteSpace=wrap;html=1;aspect=fixed;" vertex="1" parent="1">
          <mxGeometry x="240" y="10" width="100" height="100" as="geometry" />
        </mxCell>
        <mxCell id="iqdBXL-8VNj3FP1n8Vjj-4" value="GUI Stuff not our business&lt;br&gt;&lt;br&gt;&lt;br&gt;&lt;br&gt;&lt;br&gt;&lt;br&gt;&lt;br&gt;&lt;br&gt;&lt;br&gt;&lt;br&gt;&lt;br&gt;&lt;br&gt;&lt;br&gt;&lt;br&gt;&lt;br&gt;&lt;br&gt;&lt;br&gt;&lt;br&gt;&lt;br&gt;&lt;br&gt;&lt;br&gt;&lt;br&gt;&lt;br&gt;&lt;br&gt;" style="whiteSpace=wrap;html=1;aspect=fixed;fillColor=#dae8fc;strokeColor=#6c8ebf;" vertex="1" parent="1">
          <mxGeometry x="370" y="30" width="380" height="380" as="geometry" />
        </mxCell>
        <mxCell id="iqdBXL-8VNj3FP1n8Vjj-5" value="Filters" style="ellipse;whiteSpace=wrap;html=1;aspect=fixed;" vertex="1" parent="1">
          <mxGeometry x="500" y="170" width="80" height="80" as="geometry" />
        </mxCell>
        <mxCell id="iqdBXL-8VNj3FP1n8Vjj-7" value="" style="endArrow=classic;startArrow=classic;html=1;rounded=0;exitX=1;exitY=0.5;exitDx=0;exitDy=0;entryX=0.017;entryY=0.257;entryDx=0;entryDy=0;entryPerimeter=0;" edge="1" parent="1" source="iqdBXL-8VNj3FP1n8Vjj-2" target="iqdBXL-8VNj3FP1n8Vjj-5">
          <mxGeometry width="50" height="50" relative="1" as="geometry">
            <mxPoint x="490" y="290" as="sourcePoint" />
            <mxPoint x="540" y="240" as="targetPoint" />
          </mxGeometry>
        </mxCell>
        <mxCell id="iqdBXL-8VNj3FP1n8Vjj-8" value="" style="endArrow=classic;startArrow=classic;html=1;rounded=0;entryX=1;entryY=0.5;entryDx=0;entryDy=0;exitX=-0.019;exitY=0.662;exitDx=0;exitDy=0;exitPerimeter=0;" edge="1" parent="1" source="iqdBXL-8VNj3FP1n8Vjj-5" target="iqdBXL-8VNj3FP1n8Vjj-1">
          <mxGeometry width="50" height="50" relative="1" as="geometry">
            <mxPoint x="490" y="290" as="sourcePoint" />
            <mxPoint x="540" y="240" as="targetPoint" />
          </mxGeometry>
        </mxCell>
        <mxCell id="DuLk8FnAJe3swuebrGKU-1" value="Mouse/Keyboard Input " style="whiteSpace=wrap;html=1;aspect=fixed;" vertex="1" parent="1">
          <mxGeometry y="120" width="90" height="90" as="geometry" />
        </mxCell>
        <mxCell id="DuLk8FnAJe3swuebrGKU-2" value="Map Style Selection" style="whiteSpace=wrap;html=1;aspect=fixed;" vertex="1" parent="1">
          <mxGeometry x="40" y="240" width="80" height="80" as="geometry" />
        </mxCell>
        <mxCell id="DuLk8FnAJe3swuebrGKU-4" value="" style="endArrow=classic;html=1;rounded=0;" edge="1" parent="1">
          <mxGeometry width="50" height="50" relative="1" as="geometry">
            <mxPoint x="120" y="290" as="sourcePoint" />
            <mxPoint x="180" y="280" as="targetPoint" />
          </mxGeometry>
        </mxCell>
        <mxCell id="DuLk8FnAJe3swuebrGKU-5" value="&lt;div&gt;User Geographical Information&lt;/div&gt;" style="whiteSpace=wrap;html=1;aspect=fixed;" vertex="1" parent="1">
          <mxGeometry x="100" y="20" width="80" height="80" as="geometry" />
        </mxCell>
        <mxCell id="DuLk8FnAJe3swuebrGKU-7" value="" style="endArrow=classic;html=1;rounded=0;exitX=0.5;exitY=1;exitDx=0;exitDy=0;entryX=0.5;entryY=0;entryDx=0;entryDy=0;" edge="1" parent="1" source="DuLk8FnAJe3swuebrGKU-5" target="DuLk8FnAJe3swuebrGKU-15">
          <mxGeometry width="50" height="50" relative="1" as="geometry">
            <mxPoint x="380" y="210" as="sourcePoint" />
            <mxPoint x="170" y="150" as="targetPoint" />
          </mxGeometry>
        </mxCell>
        <mxCell id="DuLk8FnAJe3swuebrGKU-9" value="Vestigial Whale Pelvis" style="ellipse;shape=cloud;whiteSpace=wrap;html=1;" vertex="1" parent="1">
          <mxGeometry x="10" y="430" width="780" height="30" as="geometry" />
        </mxCell>
        <mxCell id="DuLk8FnAJe3swuebrGKU-10" value="Weather" style="whiteSpace=wrap;html=1;aspect=fixed;" vertex="1" parent="1">
          <mxGeometry x="120" y="330" width="80" height="80" as="geometry" />
        </mxCell>
        <mxCell id="DuLk8FnAJe3swuebrGKU-13" value="" style="endArrow=classic;html=1;rounded=0;exitX=0.5;exitY=0;exitDx=0;exitDy=0;" edge="1" parent="1" source="DuLk8FnAJe3swuebrGKU-10" target="iqdBXL-8VNj3FP1n8Vjj-1">
          <mxGeometry width="50" height="50" relative="1" as="geometry">
            <mxPoint x="160" y="380" as="sourcePoint" />
            <mxPoint x="210" y="330" as="targetPoint" />
          </mxGeometry>
        </mxCell>
        <mxCell id="DuLk8FnAJe3swuebrGKU-15" value="" style="shape=image;verticalLabelPosition=bottom;labelBackgroundColor=default;verticalAlign=top;aspect=fixed;imageAspect=0;image=data:image/png,iVBORw0KGgoAAAANSUhEUgAABQEAAAGVCAYAAABOwjcqAAAgAElEQVR4XuzdeYBNdePH8U8zwzDIWEcjRCItSkkLedqIpHiKUrYihQo9ClmyhpKlhJSyFaV+pIVo1SZJigghRHYjgzEz9Pvee2c5987d5947Y7zvP8+TOcv3vM73nnPP53yXsw4fSf5XfBBAAAEEEEAAAQQQQAABBBBAAAEEEECgwAqcRQhYYM8tB4YAAggggAACCCCAAAIIIIAAAggggIBdgBCQioAAAggggAACCCCAAAIIIIAAAggggEABFyAELOAnmMNDAAEEEEAAAQQQQAABBBBAAAEEEECAEJA6gAACCCCAAAIIIIAAAggggAACCCCAQAEXIAQs4CeYw0MAAQQQQAABBBBAAAEEEEAAAQQQQIAQkDqAAAIIIIAAAggggAACCCCAAAIIIIBAARcgBCzgJ5jDQwABBBBAAAEEEEAAAQQQQAABBBBAgBCQOoAAAggggAACCCCAAAIIIIAAAggggEABFyAELOAnmMNDAAEEEEAAAQQQQAABBBBAAAEEEECAEJA6gAACCCCAAAIIIIAAAggggAACCCCAQAEXIAQs4CeYw0MAAQQQQAABBBBAAAEEEEAAAQQQQIAQkDqAAAIIIIAAAggggAACCCCAAAIIIIBAARcgBCzgJ5jDQwABBBBAAAEEEEAAAQQQQAABBBBAgBCQOoAAAggggAACCCCAAAIIIIAAAggggEABFyAELOAnmMNDAAEEEEAAAQQQQAABBBBAAAEEEECAEJA6gAACCCCAAAIIIIAAAggggAACCCCAQAEXIAQs4CeYw0MAAQQQQAABBBBAAAEEEEAAAQQQQIAQkDqAAAIIIIAAAggggAACCCCAAAIIIIBAARcgBCzgJ5jDQwABBBBAAAEEEEAAAQQQQAABBBBAgBCQOoAAAggggAACCCCAAAIIIIAAAggggEABF4h8CJi8WV99t1XJXmHL6/LGtVWxgONzeAgggAACCCCAAAIIIIAAAggggAACCERCIPIh4JbZ6tB3sfZ6PbpL1eudPmocCQH2gQACCCCAAAIIIIAAAggggAACCCCAQAEXIAQs4CeYw0MAAQQQQAABBBBAAAEEEEAAAQQQQCDyIWDaUe07eFQnc9iv0AuPzdVa+7/no5aATt2X6abMVwYBBBBAAAEEEEAAAQQQQAABBBBA4PQTiHwI6NFomQa0nqqf8lsI6NR9OR+Fk6dfXaPECCCAAAIIIIAAAggggAACCCCAAAJ5JEAI6AueENCXEH9HAAEEEEAAAQQQQAABBBBAAAEEEMjnAoSAvk4QIaAvoTz9e1ryLq1ZtU5JJS/SVRclqkShPC0OO0cAAQQQQAABBBBAAAEEEEAAAQTypUABDQHTdWT/QR3NHHgwupjKlC2moPKh/B4CphzW7sMn7JWrSMnyii+SXc/Skg/ogB0hWsVKlwkoIMte17G96GKlVa54TK4qsfM2YxWfUFKW4ga+7V0L9Wjvd7Q53bFqTOIdGje+taoHviXWQAABBBBAAAEEEEAAAQQQQAABBAq0QMEKAdP264d3X9WUj37X7lSXqUdizlbVq1uq98ONVM1j8rRVU7sN1Pz9QZzzsk300qS2YQ2g/pjeU4997CjclV0nqsXG0Rr2xQ6lnsoob1Qx1bjrSY1pUVQfjhqhaWv+yZ6AJfNvrap7DkON35qP3tHkj37U1sNpORCii5yjq/77oLo1q6VyHhNVq6FjDMWrfp6nMdMWafXeVGUW1ZHana1ajTur3/1XeNme53Nh9XAsVUKNB0xWr9pBnD9WQQABBBBAAAEEEEAAAQQQQAABBAqwQIEJAdP2fa5hfWbox+Sc8w5bz19U8VrqPLSPWp7rrlXb6RMClk9I0P49e5xDNfuBllSlxDTt2HXMTbUtaUKyCSYkc3Psh37QiD6T9E2Sdz/bRqMSGmrI0C6qW8rdN8NqWFr1biirtV9ulLvSZK4dldBIzz3fQRcH2CyQELAAX5k4NAQQQAABBBBAAAEEEEAAAQQQCKlAwQgBD5mZhXuamYWPO2yiildUw1ubq9E1NZSoPVq3fKmmv79K+zK6jaro5Xrq5d66sbirZbI2frNcm6yJ1f4Vmrlgnf6xL1pRN3dupFruTkFcVTVscL5pixa+j3PoFadz6zdWi1rx0vFtWvR/X2hzxvHbuv+WOL+hWt9YRUWVZFpHfqAfM8K92Gt6asETdZ0LmfaHpj4xTPP3ZASAMWV0zZ1t1eqGKiptlkzZvVHLPpmnd1YeyGpZGHXB/Zo9oqly5oDugtRCiq9ylZo2qqEytj0f363vFn+mVQeyWxvG1e6i1wY0dLM9L567PtH/+s3SuozjjqnaWlNG32HOEh8EEEAAAQQQQAABBBBAAAEEEEAAAatAAQgB/9Zbvftq1nZHgBVX836NH9RUlVy7qx76ReMGjdWSjKCr1A19NaPbJb7HCcxHYwJaQ8CzGzyp2Y9fllX+Ix8MVutZfzjObfyNen5qJ12SeabXT1ObZ74wcaD5uOm2fOTjobp3+kZHq8Kipgvv+D5q7KaV36Hl49Vt7ErHdkyLw6ZDXtbjORJRlxAwKkGN+wxUrzomrHT6pOq3af301CeZrRnj1KD3JPWvF+C4g2ZMxD83bNTB+Bq6qEouxxjk2oAAAggggAACCCCAAAIIIIAAAggUUIHTPgRM+368Wo1bKfvUGEXradBrj+taT+PVWQO9KBN2zTJhl6/ZQvJpCFj+tmGa0bFqdrVc8aJajFnhcDCt6haZVnXZH9NSsrVpKWn7Bzch4JLhbTXuV8fSVVuN06RW5TxU93QtGd7JLOsIXBObj9S0dpVclnUOASu1fF5T25zjYXtJmt+/h6ZucmwvqmZ7zR3WOKytKQvo95jDQgABBBBAAAEEEEAAAQQQQAABBLwKnOYhYLIWDuyuyRscIVL1+ybqpRauLc6sx59sQqdHTOhk+7dY0/Jsmml55qOGnC4hoLWcAYaAgXxHrK0Ro+p01Uf96nsNAa/sOlvDb/S8B6cQ199gNpACsywCCCCAAAIIIIAAAggggAACCCCAgE7vEDDNtHBrZ1q42fuxVleX1werZY5x/pzPsjXEytGazl2FIAR0UnEalzBH2Ghb1LkloK8QUFqpEW3H65tU27qldceIF9X1Ar6ZCCCAAAIIIIAAAggggAACCCCAAAKhFDi9Q0CngK6kql5RTZ46smaiHf9rndbstXealfuWbC68Z1gImJa8RT9+9IU+WfO7fv87OUddO3XimJJTMyYQCUkIuEPTHuund/c4duU7NAxl9WdbCCCAAAIIIIAAAggggAACCCCAwJkhcHqHgNZx8II5X25DrDM0BEzZpg9fHKsplhmAfZKGJASUGWcwe0xCQkCf6iyAAAIIIIAAAggggAACCCCAAAIIBCxweoeAX4xW08lrHAcdVVjFi8UqKhCCS9vr7Z7Xel/jTGgJmPaHpj4xTPMzZk62WVaofqWuvaqmKpZK0MU1E1QkQ2n7e8P1zJcHHf9FCBhIbWNZBBBAAAEEEEAAAQQQQAABBBBAIM8ETu8QcNMMteu/VPttfKUbafyUDqoZasozIARc+0p3PfnZYUeWmtBQgwY9qKvLxbiVDP2YgPv0Vu9emrXdsTtaAoa6ArM9BBBAAAEEEEAAAQQQQAABBBBAQKf5xCB756vro+/pT/uZ9G9ikIBPeoEPAddqXKdRWnLEJlNSTYe8rMdreVYKfQjIxCAB10lWQAABBBBAAAEEEEAAAQQQQAABBAIUOL1bAjrNRButC9tN0Ljm8QES+FjcKWi8VL3e6aPGod2D31vzOrOxNazM0U3XzKLc2syibNtT2SZ6aVJbE5lmfix/k+/jC3kI+OtU3TN8mf6xFSfK7H+W8S3kNwkLIoAAAggggAACCCCAAAIIIIAAAgj4IXCah4DSzjl91Hn+TsehFjUh0ngTIpXyduTp2rDyV5W+7AqV8ytssoZkZdVy1Hh1qeaHbBgWCX8IWFFtxo9W+0QPhXcdO9CPMQEvbDfFBLPFPWwwSYsG/08vrsuYrblme80d1lglwmDHJhFAAAEEEEAAAQQQQAABBBBAAIEzWeC0DwGVZrqTdh6vb447TqNtTLshQ7uorrsgMG2/fnh1pIZ+uUeKr6e+ox/X9V4DQ9sWd2jaY/30rlnF9il1Q1/N6HaJ/MoPQ1yzwhMC/q4XuwzXoiRHYeNMsPfagIZyZUnbt0pvjJmi+VuPZR+VHyGgitZQlxFPq+W5rmMMpmvHB8+q56yNcmwxTg16T1L/eu7HInRP+bvmjvpI6zP+WOuO/+nei0KMzuYQQAABBBBAAAEEEEAAAQQQQACBAiAQ+RBw7zea+PoP2pcD76A2rtomRxZVUlWvqKZyrsuUuVrdHmqgBJd/T9s0W48MXKxdpzL+EHO2av3nv2rbpLYSbdPapuzRuuVf651PftC25JP2haLir9OAsd10radGapZ97JzXT13m7ZBj89EqcX5DtW5aT3VrxmrXL9t16NA2rVhzQDW6PKX7K4evVoQnBDStKZ2OT4opU12Nbmig8+1JYJI2L/tOn/2xV6mZvpmH6E8IaMcupirX3q4uLa62n4+U3b9qyfwFen9dUoap5/DRu6a1lSaTioSv5rFlBBBAAAEEEEAAAQQQQAABBBA43QUiHwI6TbQRIF+O8eyy1z/08zT1ef4L7Uj3vc2YxBv1zDOd3LcWdLe6azdYD7u47KHpGtUokJZsvstqXSJcIaAt6Fsyso8m/Hw0K5RzV7Ko4rXU+WZp6vsZbe/czsi8VVO7DdR8+5TNUvnERB3YtUuO6NX9JyqhicaObauaATevJAQMrAaxNAIIIIAAAggggAACCCCAAAIInKkCBSYEtJ/AlG36bMZ0Tft6iw6l5oydYkpWUYO7uqhHkyqyNRAM6JO2U4vGvaApq9y0iDOtAwvHn6vGnfupez0/mhYGtOPshcMXAtr2kaotiydq2OxftNvVzrSsrHp1S/V+uJGq7ZqtDn0Xa6+9WJXUbuJI3VfeekDOIeCVXaerR4m5GvnKZ1p/OM35yE0LwRpNHtaA+/0dn9EVjhAwyKrEaggggAACCCCAAAIIIIAAAgggcIYJRD4EjAhwuo7sP6ijB7bpp20ndE7NGkosGa8K8YVzv/eUw9q9Z7vWbTCDBCbU0EUViqlY6TIqEXArttwXJTxbcNgd2LlRvx0uqYtrVlaFhJIBhKauIeBsDb/RUdKUpL1K2mM7J1LVy6qpUq7drCFgrBlTcJoZUzA8KmwVAQQQQAABBBBAAAEEEEAAAQQQOJ0FCmgIeDqfktO97J5DwJAf2aYZatd/qew9j6PMzNCzzMzQBSaMDbkWG0QAAQQQQAABBBBAAAEEEEAAgTNYgBDwDD754Tn0yIWAe8yEJh3NhC22T+xVj2nek1fnyazN4XFkqwgggAACCCCAAAIIIIAAAggggEDoBAgBQ2fJluwCkQoBLfuJStDdz76gTtU4BQgggAACCCCAAAIIIIAAAggggAAC7gQIAakXIRaITAh4bPlEdRq/XEmnopV420BN6VidVoAhPpNsDgEEEEAAAQQQQAABBBBAAAEECo4AIWDBOZf55EgiEwLaD9Y2G/RXSbri1stUKp8cPcVAAAEEEEAAAQQQQAABBBBAAAEE8qMAIWB+PCundZkiGAKe1k4UHgEEEEAAAQQQQAABBBBAAAEEEIicACFg5KzZEwIIIIAAAggggAACCCCAAAIIIIAAAnkiQAiYJ+zsFAEEEEAAAQQQQAABBBBAAAEEEEAAgcgJEAJGzpo9IYAAAggggAACCCCAAAIIIIAAAgggkCcChIB5ws5OEUAAAQQQQAABBBBAAAEEEEAAAQQQiJwAIWDkrNkTAggggAACCCCAAAIIIIAAAggggAACeSJACJgn7OwUAQQQQAABBBBAAAEEEEAAAQQQQACByAkQAkbOmj0hgAACCCCAAAIIIIAAAggggAACCCCQJwKEgHnCzk4RQAABBBBAAAEEEEAAAQQQQAABBBCInAAhYOSs2RMCCCCAAAIIIIAAAggggAACCCCAAAJ5IkAImCfs7BQBBBBAAAEEEEAAAQQQQAABBBBAAIHICRACRs6aPSGAAAIIIIAAAggggAACCCCAAAIIIJAnAoSAecLOThFAAAEEEEAAAQQQQAABBBBAAAEEEIicACFg5KzZEwIIIIAAAggggAACCCCAAAIIIIAAAnkiQAiYJ+zsFAEEEEAAAQQQQAABBBBAAAEEEEAAgcgJEAJGzpo9IYAAAggggAACCCCAAAIIIIAAAgggkCcChIB5ws5OEUAAAQQQQAABBBBAAAEEEEAAAQQQiJwAIWDkrNkTAggggAACCCCAAAIIIIAAAggggAACeSJACJgn7OwUAQQQQAABBBBAAAEEEEAAAQQQQACByAkQAkbOmj0hgAACCCCAAAIIIIAAAggggAACCCCQJwKEgHnCzk4RQAABBBBAAAEEEEAAAQQQQAABBBCInAAhYOSs2RMCCCCAAAIIIIAAAggggAACCCCAAAJ5IkAImCfs7BQBBBBAAAEEEEAAAQQQQAABBBBAAIHICRACRs6aPSGAAAIIIIAAAggggAACCCCAAAIIIJAnAoSAecLOThFAAAEEEEAAAQQQQAABBBBAAAEEEIicACFg5KzZEwIIIIAAAggggAACCCCAAAIIIIAAAnkiQAiYJ+zsFAEEEEAAAQQQQAABBBBAAAEEEEAAgcgJEAJGzpo9IYAAAggggAACCCCAAAIIIIAAAgggkCcChIB5ws5OEUAAAQQQQAABBBBAAAEEEEAAAQQQiJwAIWDkrNkTAggggAACCCCAAAIIIIAAAggggAACeSJACJgn7OwUAQQQQAABBBBAAAEEEEAAAQQQQACByAkQAkbOmj0hgAACCCCAAAIIIIAAAggggAACCCCQJwKEgHnCzk4RQAABBBBAAAEEEEAAAQQQQAABBBCInAAhYOSs2RMCCCCAAAIIIIAAAggggAACCCCAAAJ5IkAImCfs7BQBBBBAAAEEEEAAAQQQQAABBBBAAIHICRACRs6aPSGAAAIIIIAAAggggAACCCCAAAIIIJAnAoSAecLOThFAAAEEEEAAAQQQQAABBBBAAAEEEIicACFg5KzZEwIIIIAAAggggAACCCCAAAIIIIAAAnkiQAiYJ+zsFAEEEEAAAQQQQAABBBBAAAEEEEAAgcgJEAJGzpo9IYAAAggggAACCCCAAAIIIIAAAgggkCcChIB5ws5OEUAAAQQQQAABBBBAAAEEEEAAAQQQiJwAIWDkrNkTAggggAACCCCAAAIIIIAAAggggAACeSJACJgn7OwUAQQQQAABBBBAAAEEEEAAAQQQQACByAkQAkbOmj0hgAACCCCAAAIIIIAAAggggAACCCCQJwKEgHnCzk4RQAABBBBAAAEEEEAAAQQQQAABBBCInAAhYOSs2RMCCCCAAAIIIIAAAggggAACCCCAAAJ5IkAImCfs7BQBBBBAAAEEEEAAAQQQQAABBBBAAIHICRACRs6aPSGAAAIIIIAAAggggAACCCCAAAIIIJAnAoSAecLOThFAAAEEEEAAAQQQQAABBBBAAAEEEIicACFg5KzZEwIIIIAAAggggAACCCCAAAIIIIAAAnkiQAiYJ+zsFAEEEEAAAQQQQAABBBBAAAEEEEAAgcgJEAJGzpo9IYAAAggggAACCCCAAAIIIIAAAgggkCcChIB5ws5OEUAAAQQQQAABBBBAAAEEEEAAAQQQiJwAIWDkrNkTAggggAACCCCAAAIIIIAAAggggAACeSJACJgn7OwUAQQQQAABBBBAAAEEEEAAAQQQQACByAkQAkbOmj0hgAACCCCAAAIIIIAAAggggAACCCCQJwKEgHnCzk4RQAABBBBAAAEEEEAAAQQQQAABBBCInAAhYOSs2RMCCCCAAAIIIIAAAggggAACCCCAAAJ5IkAImCfs7BQBBBBAAAEEEEAAAQQQQAABBBBAAIHICRACRs6aPSGAAAIIIIAAAggggAACCCCAAAIIIJAnAoSAecLOThFAAAEEEEAAAQQQQAABBBBAAAEEEIicACFg5KzZEwIIIIAAAggggAACCCCAAAIIIIAAAnkiQAiYJ+zsFAEEEPBTIOWojkQXU4lCfi6fZpY/aZYv4ufyLIYAAggggAACCCCAAAIIIHBGCOTbEDD12AntO5ZxDgrHqOLZ0WfECeEgEUAAgUyBtE3z1XvkIpV5aJIGXRvjF0za9+N176sHdeeTA9S+VmG/1slvC6Ul79KaVeu09nC8WjavqxL5rYCUBwEEEEAAAQQQQAABBBA4DQXyVwh44qg+WHRIk384ob/SXDSjzlKJEoXV+cFz9UDF01CaIiOAAAIBCBz6eap6j16mXaekuPr/03s96vi19qqJD6v/sqNSVLwa9Biu/tfG+7Vevlgobb++nDRMY749oJO2AhWup0GzH9e1+aJwFAIBBBBAAAEEEEAAAQQQOL0F8k0ImHrooJ4Ye0jLjnsDjdEDT1RRr8TTG/30Kf1JbfzlsFYnn6VqF5VU3VJRp0/R80lJ0/at19c/79Txkhfo5qurKP/10EzVlh+Waf3hIqpc5xpdWs6/1mah5U1V0p4kpWRu1HR9LVO2mDz2fjXdXfcdPOoIiWwfX8uHtrAR2Vraptl6ZOBiewAYldBIzz3fQRf7W3nSdmr+0CGausE0pY5KUMtho9Xlgrw4r4FSJWnJ8Kc07ldHE/CYMhereZNmanZnbfHeJ1BLlkcAAQQQQAABBBBAAAEEcgrkjxDwZLJGjtqjOYcyC3iWzqlcVLdcEqsqsbZ/S9f630/opz+j9fCwRDXjTEZEYNenO9RscaojbCkSp5eHn6PrI7LngrKTnzW6wwv60h5sR+v8NmM0sWW5fHVwe+YP1INztspkTVLR6zRkRjfVi3gJl2lA66n6KXO/UZeq16w+auwhBbR1d201bqVOZC5ftolemtRW1SNe7jDtMG2lRnQer29s9aaosRhvLEoFuK+0PzS5x2At3G/bxuV66uXeurF4gNuI8OKHPhistrP+sNfFuNpd9NqAhgr0sCNcZHaHAAIIIIAAAggggAACCJxWAvkiBHQKm6Ji1Obhc9XvfMYA9K8mpei7b4/pL/vCUbro8nhdUsy/NX0tteqdP9VxRWZ7q0Lq3q+yHi7jay3+niVwbIl6d5yp3zL+IfaanlrwRN18BbT2le568rPDGWWqpHYTR+q+8oEXcefqT7V6r2O94tWu0X+qB5I4uYSAitW1vV7xMAZeur5+/mE9+2NWBCgVqBAwXd+P7aahy22t4crqjhFj1DXIVnxpv05V++HLlGS2FFenq6b3q5+Px9b7XS92Ga5FtsJG1VDX1wbpjkCqUOBVljUQQAABBBBAAAEEEEAAgTNOIB+EgCf0ypi/9PJuh321GytqQTN/+72dcefLzQEfVNfeh/St/S8xatejip6sFBqX1D/3qtWUI9qaLp19YSkt6FzaxBJ8/Bcw3RtH9tGEn4/qVEyi7h7yrDoFGej4v8/AlkzbNEfdn/lIO9KjVaJOJ73SL7jWV0uGtzXdOB37Ln/bMM3oWDWAgriGgFLsVY9p3pNX5+wSnGaWbWdaDdqbLmZ8ClIIuGW2OvRdLFueGmdC47kmNPZ3UuCc4NbAtKQaD5igXrXzabdgy3Gr8l2aPqalEgKoQSyKAAIIIIAAAggggAACCCDgWyAfhICH9OhTB7XM/lAfrTaPnqd+5/kuOEtkCoQvBMQYAX8FQh0CqnBdPf1GT13vkoAd+Xio7p2+0dF9ucCFgMlaOLC7Jm+wtb6tqDbjR6t9bsc/3TVPXXq+rx1mi1EmXJtqwrX8OL5e2tIRuuPV9Y4zaroCLzJdgfkggAACCCCAAAIIIIAAAgiEViAfhIDWECtWg0afq7vpCRzAWSYEDACLRcMkELIQMCpaUadOmpAvVg16T1N/pwEKLSFZ4VjFpp5wjAtYUFoCrp+mNs98Ye++G2WCsAUmCAu+FWDmibYGiyXVdMjLerxWmCpBLjb7x/Seeuxj2wCG5nTeOlizOhWYER5zocKqCCCAAAIIIIAAAggggEBoBfJZCFhEw8ZU1J2hPcbQbe1EmnYeyW6DVLxUrEoGGVimHjuhfY5JMO2f6LhCqhAXzOy7p0kI6GIX/PE6n87j/5zQwdRMxGiVKxWjwqE74/lvSy4z4xYpWV7x+aD3fMhCwIsu1ZW/r7F3980xhmLyIvV68E39bs5K7DX1dMnyFY7JRPwOAV1mITZBY3xCyVzO2Oy8zehipVWueHBdbrPHZ/Q2JmLgVTLti9FqMXmNvfVkfhyX0nZE1hAw8O7kgZuwBgIIIIAAAggggAACCCBwJgpEOAS0BlaBcrsPCNcv2KZ7vjGD1plPYoMKWtzC26wY1v17CBx/2Kna81Kctpd66LAmzD6kOdtOmnmKLZ+os3TuhSU1/v4yqmGfxdjX55T+Xrtfgxcma8XBfx2z7lo+saVj1eGOcupiZkX2FGS9/8pmDdzkaz/u/u4lYLUcs8ctlyqut/snKLBGRLk/Xlt5so85c8xD23b3qc+7R7U6+V+nIkcXilHD28pq1PXFVDQYpqDW2aqp3QZqvqMhk8fPlV1na/iNfuzAOj5aZtfIlG368MUJenXVXqU69YUtpPgaN6tnj3t1dTkv4ZMJgpqaIMjrx98wzZ9tediRewPLmICVm+juokv1rq1LbOF6GjT7cV2bsa0jZvbY1mb2WBNlmVaCHXR8TMaMwj7KnfLn15o5c74+WudqZzYVVVilqtdXp87tdPN5XuJjyzHbQ6r7C2vRpEma+cM2JTldFKJVuPxleqj3o7rd2/Zy+KzVuE6jtOSIrUzeZ0f2owY5L2IdR9HFNOBthWkFQsAwwbJZBBBAAAEEEEAAAQQQQMAiQAjoWh0sgViRS8vo49rHdM+c49rnFLw4ryE+MmQAACAASURBVBRdtIgGP2laMJ7tpW6dPKF339ilEb+fyhH+ua5lm4Rj3gOldY6bVoanTwiYqiUzdqnPmpO5Ol6bTfYxn6XG7c9V4599bzeyE5mEMQQ047i99rA0cvh72nzcS/3yNfGIP8FdfggBTRlG3r5F/e3j/lm7BO/TW717adZ2Y1CioUZOu1DvtvYVAqZrw7whenreVlka3XpAjNPF7Z7RyOYV3XfBtfpVq6/GR5dryR7XGN+66Thd+dCzeqZRWf+69JqZfO8xM/n+Y9vEBffrnRFNQziTr8XObLXxgMlmgpD8dR8kBMxf54PSIIAAAggggAACCCCAQMEUiHAImKLvvj2mv5wsT+it+ce0xf5vhXRHy+Jy/3wao2vqn63KLuchnC0BZbqWVj6cru2nztI5leN0x5WFVc6+/3St+u6oPtmTHegVv7C0FnUupZJu60mqCbJ2mhZ8mUmi2V71Yrr32mJqXLGQ9u08oqXfJ2vOH9ktDT1tb/v6g1p+0LoTq1+Urr6xpBrFuyuEez/7kqv+1n/ed7R+dPqc+lf/HM9osRhQS8BTWrNgh9qbFpqOmOQsla4Spw4Ni3s+3gtKaeHD7mcftgafiWVitOeA2W5MtC6/Ik63V8xo/Xb4hOZ8f8wSlEWp4b2VNLFucF0zA/u679CbfZ/Vwn0510o7fkTHM1qKBdUSsESCEtP3aNdxM3vvuZfplv/UVkV7E8cU7Vy+VAvXHsgKWaMSmmnCS23kdjS1b1/WPa+vdXOOTyj5aKpjog1/Q8C/f9VHa2zz12Z/1i+ers8yvthnX3yH2l9b2i1hhUtv0ZXnuP7J0hLQVobnymtK55n6zRTq7Bv66u1ul0iWCS7s/9Z+R1bXYE/lPmSCu86m9aMjADR+5zdUh3sb6coKtv7TSdqy/Gu9/f4ybUzODPO8zKDrJkSNKlxel99yk65LdPTHPrB+qT78fqeyRgyISlDLYaPVxY8ZoffM66eO82zTd4RnTLwN0x5Xz08cF47E5iM1rV2IphAP7IvicWlCwBBBshkEEEAAAQQQQAABBBBAwItAhENAdyXxo4uulwMIawho22+RwuryQKIePd+1WZ5r0FVYTw2ppLZueiMfNq0LG5kuxvaYLSpGLTqeo6EX5ex6uH/dbnWcftSEjrYFo3X3I+dpkM/x8cM4JuCOPWoyIVm7bMUJIARM/XWXbph5XMn28xal+v9N1ITrXLs4my69K3er7TuZrSzPUv1WlTX56pyhnWvrx+KJJfRy9/Kq49oF+2Synn9uj2YdyKgwlUvq68fLeghmI3NdsI6VF1QIaCeMV4Pug/XU9TlblTkHXUG08rJ2PfY3BHRDF7IxAe1laKE1/R/RVFu3d3urvy4qN6ePOs/fafsHR0u24rPVoe9i2aNIt+X+XS92Ga5Ftlk2zHcp8baBmtKxes5WeWk7NbPf05qz3REERtVsr7nDGudshecSAsbVvF/jBzVVJZeZO9L2fa4hvV/XTxmtNv2dkTeoehJAFXaaffeiB7Vw8E3+tVAMYB+5WfSLkR303M+Oc1C11ThNauV43cIHAQQQQAABBBBAAAEEEEAgdAKEgK6W1vHxTGDXrlslPXmepwk7jmjo4L1615F2mRDrfBNiuW4wRROf26mpGQ2najSqqHdv9TyTgzXUtHVHXtHBbbM+y07yWwjofLyJ1yVo4X+LexzjcP0H23TfVxktBosX0/TBFXSFC6E1BIwuU1wzn0rQpZ4mZPljt26cclSOHDDvJ5oJKtyxBnMy3Uq7PmfGEvRUD6yzv0oBT6qQL0PAtkrIGv/PFvoNUpk3ntQcWwYYf6Oen9pJl/gqt/XvvsbBsy4bdbmemttbOYZutIaAhevq6Td66noPU/emma697U3XXnv+aCJo3zPyWruTl9YdI15U1wtCd5G3b2nTDLXrv1T2YStzEfaGuFSOzaX9oKEPvKTv7RP8VFSb8aPVPjEse2KjCCCAAAIIIIAAAggggMAZLUAI6Hr6rSGgH63fnLqqupuYxNqarnBRjRmWqMbeZhTetVe3jz0i29BnKlNC7/UrL+95QD4LAa3HGxWrfs+cqzbe5mo5maReAw/oM3sA4L71o09jp3MYRo8gLhW5DwHNJBHv9FFjL/u2dqVU5kQi/pbVV5jm53ZC2xKwrapbZgI++4LqKrLpD3urv1I3D9BbD18ohajcjsOzdEdWgu4e84I6uY47YA0BfYZof2tmr4zQ0mzddzD7rQbdO1k/2lsAe9i/n+fB42Lb56hT748crXrlu07ldnd+r5+2X4tGP60Xf3V02o6r01XT+9UP4XiIfpeEBRFAAAEEEEAAAQQQQACBAi9ACOh6igMMAX11R961eLuafJrm2Mv5pbSya2mPreIcC53Ugf3pjq7D0dEqZ8Yl9DJnqVkojKFXEN2BD3+5Q9d/aE/0JL+6454y4yVuzZrxuPJ/ztGHzeOczkpgIeBRPT9it2Ydsm0iczbhvPseRyIElDWgKighoOlMPj+zS3DW6bO0qgtbCFhWLUeNV5dqLnUmoBBQso7xJ5/db60hZLgCukjsw8/vWfJmffXdz/pl1Vr9vHardqc6ugHHJDbTmOfbqKaHFpZ+bp3FEEAAAQQQQAABBBBAAAEEPAgQArrChDgE/GHuVj200jEhSILpGrvUdI0N7Sd/hYDW40101zLSzcFvMl2C7zJdgm2faDPBys9mghXrhxDQe0vAAhUCWlqpOQVptgqR2RXY9v8DCgFTteuXZfrwixVa/fsOHcjI5LPrWLqOHjmeMcFKaEJALRujZhNX+znhSiQCOus+KqndxJG6r3xor0R+b82pu7ttrZK6qGUn9b37CpUjAPSbkQURQAABBBBAAAEEEEAAgUAFCAFdxUIcAgYWYAV6+mzL568QMKjjtZqbWYJ/NbMEEwJmTHrhT9fNgtQS0Hq8e+er66Pv6c+MyuDUrdavEDBd+1bO1fBJSy0zAPv6joUoBPSrfJlliXQI6OEYfdGE6u85QkAzIUvxarrnyQFqX8t7u+dQFYHtIIAAAggggAACCCCAAAJnogAhICGg53ofRHdgQkBnTroD+3NZ9RSC7dNbvXtpln2ATJfgyo+QzXnmZNPdtGQVXXJlHTWoFq9SVWrL/E/GZ4VeeGyu1tr/60wIAWvp8Tf7q2metrpL15H9W7Tivdl65YstOmJrLB2VoJbDRqvLBTlnCPenFrEMAggggAACCCCAAAIIIICAdwFCwDCHgMF0jw2s0uavloDBHC/dgV3OuFNLKT/GiCuoLQENy845fdR5vpkW2HUyDl8hYPIS9e48U7/Ze+LH6eL7+mt4iypmvmh3H2sIGaIQcMWLajFmhU7Yc8UmemmSmezE4xfbuv8wBXRpn6vv/a/rF3sZ/KhTgV2EcrW0U1hr7fKdq62yMgIIIIAAAggggAACCCCAgKtAgQoB4+uW07J7z/Zylq2BWRENG1NRd4Y5BAx8YpBAK2n+CgGDOd4vZmxRjzX/2g+ciUEMAiFg9mzIKYe1+7CJ0mLjVSHe0lXURwh45IPBaj3rD3udiqrZXnOHNfYy42zoQ8DAJgZZq3GdRmnJEVtpw9RV1+pVoqFGTuuiywO91IRteetsyrFq0Hua+tcL287YMAIIIIAAAggggAACCCBwxgqc9iGg02y0bsaTcz6zkQ8BZe1SW7ioxgxLVONoL/XtaJLGzj2qrbZFSsap392llOi1eiap99MHtMQ+IW+IZ8MNojtwwMd7Mkm9Bh7QZ/byR6nFQ1U1tKbzAQfWxZjZgRcNaOj/Bc1Xizo/t/T92E4autze7k1OY/f5tX4QY+L5KPcf03vqsY/3+1meUIeAzjMb+/awdnsOUwhmbZlY+S5NH9NSCX6dm8gstHpSV/X70p6CKrH5SE1rVykyO2YvCCCAAAIIIIAAAggggMAZJHDah4DasFsNXz2qJNtJiyumV4dW0NUeTuD+L3eo0YepGbOARqYloHREQwfv1bvJjkJddnslzbrB8+D3h5f9pRsWnrCXMdqEmj+YSTK8D5VvDb2k+q2qavLVUaGpwsGEgErRxOd2aupeRxF8zRDsdE6KF9P0wRV0hUvpCQHz/+zA1tAtqnYXLTBBpP9DzoU3BIy96jHNe/Jqj+VxHjvQj+7APlrSpW2aoc79l8rxFSippkNe1uO1vH8lrSFY1VbjNKlVudB8hzO2Ym0ZGXtNTy14om5It5/bjQUW2uZ2b6yPAAIIIIAAAggggAACCJyZAqd/COjUkuws1fvvuXrtupyx2fHNe9TqlWRtt48RZvtEKgSUDpvZbxvNSzHxmPlEmdZ63SrpyfNyBnWpu/froYmH9bNjQTVuX0VjavsO9D56bbP6/e44qujKJbX08bKmU2EIPkGFgOZ4V+5U07kpsuee5nhbdDxHQy/yfU48BaSEgPk/BNSyMWo2cbXsX6+o6uoyebBalvK3DoY+BDzy8VDdO31jRnk8TTiRqi2LX9TA6at1MOu64EcIqGgl3vCExnS7TDkO8dAvGjdorJbsscX4hsK0uptqWt1V9EGRZsZ1bDF5jb284QjprC01L3toukY1yl+TbxAC+vtdYTkEEEAAAQQQQAABBBBAIHiB0z8ENMe+fsE23fNNukMhKkrn1y6mTnWLq07ZU/p9wzF989Mxvb/9pNJNnhZtnrIdj+eRCwGlVL3/yk4N3JSRNNjLWEJP3VhClWNNUY4c14Jv/9GcX9P0T8YixU0rwIWmFaA/YV7qr7t0w8zjjtDNfGLii6rTjXGqX7Owjm9N0Y4jaVq14YSKXF1Zg12b2dlW+GOfHvvK3h/X+XMiXT9sSXeEl4VjVPf8GBVzXaby2XqpUQmXf3U5Xp2lcy4qbo63pC60LXrihD75Ikmv+3m8+T8E3KfPX52prw7kJNy3+WdtPez49/jz6qhGaddlSus/Dz6gm8pb/j0cYwKue1/PLHSMkef0Ob5Tv6zf65jAonB5XXpJRRV1WeSsC5pp8F0X5lzX+i9pKzWi83h9czzjH2PK6Jo7m6vR5bWVmLJRv+1J0s51v2p1kRs16ZFrXbYV+hBQruWJKqYqda7XLXUq2I/v+K5f9fm3a8y5SXMpiz8hoGOVmDIXq/k9d+mOWrZphpO05ctP9cbH3+mvTINAZrtNXqReD74pe5bvcyIR76ci51+3amq3gZpv7x1dSe0mjtR91voW6ObCsDwhYBhQ2SQCCCCAAAIIIIAAAggg4CJQIEJAnUzW88/t0Sw3IUzW8UZFq3Gb0kr4eJ9mHbL9ayRDQLO7k8c1e+puvbD5VEYI6bkulru0jN7uEO9XAOjYimvo5n7bCdclaOl/i+f8o2mpWNu0VAzq42kcxpMn9PHsv9V/zUmfx3v2+SU1s0tZVfMwVmL+DwGtIUugim5Cp3CEgNYZhAMtoune6884g87daj3spHQjjZ/SQc7DPoYhBDS7T9s0R92f+Ug7Mt4PuC9RIVW6+b+q/svb+sIxhKDctpSz+pVIUKV/92tHsuN1gvtPnK7s+pyG32gLCP35WMcFrKg240ervffBQP3ZqGOZvfPV9dH39Kft/+fD8QBtxSIE9P90siQCCCCAAAIIIIAAAgggEKxAwQgBbUdvQrZ3Z+zV6N/TdSKra5+DJbZ0UfV5sILurnBcz4/YnTchoL0kJ7VxxT4N//iYVic7ZsO1fmJLx6rDHeXU5ZJYH+MAujvdqfp2wR71X56qg25Cj5giMbqqcVm90jBHWz4pHCGgvYin9Pfa/Rq8MFkrDv6bIwyMKV5YLW4rrSfrFcvR+sx6hISAIegOHIEQ0HbODv08W8Mmfab1OVrYmT/GFFXFC+9W30G3qrpTFQ5PCGjbRdq+VXpjwmtauPEfl/oXbRo+Xqi7Oj6kNnXj9cXwThr3qyPUc9sd1+pna6k39nr9/uIEvbpqr1JdrjcxZa7Qw30e1e3neR/N0/VbbO3CXKnl85ra5pxgr+tO61lnKg7HeIOhKOSfs/6nrh/scWzKz9A5FPtlGwgggAACCCCAAAIIIIDAmSSQD0LAEHOfTNfuQyn6bYPp3ppYTBcnFFKFON/j6oW4FD43d/yfEzp44Li+3fWvKp0Xp6qlQlROy/EfMCFb/YqFVKRErMrYuh3n4Sf12Ant22M73lMqY87LhWViVPFsb9Mk52Fh2XUuBdJ1ZP9B7dj8q+luW1JVL6ui0rHxqhAfWCiWy0I4r55yWLsP79GWX7ZLVWrrgoqlVa54AOPiuYaAk9o6gsy0o9p38IB2bNiopJI1dFGVCsEfZ9oPGvrAS/re1jM//kY9P7WTLsk1wt+a2etJzdlpNlT4UvWaYgJlN42Bc72b3G7AOnvxBffrnRFN5TrIQG53wfoIIIAAAggggAACCCCAwJkuUPBCwDP9jHL8CCAQegFPIWCI95TdLTbWdCeeYLoT5y6xS/t+vFqNW2kf87H8bcM0o2PVEJc4RJtLM61B203VT7ZWlVEmrJxlwkr/p5cOUSHYDAIIIIAAAggggAACCCBQsAUIAQv2+eXoEEAgFAIRCgGdJjTJ9QQhf+ut3n01y0yKpKL1NOi1x3Vtvg3W0vX92G4auvyYOVvRqtpqlCa1Ck136FCcfraBAAIIIIAAAggggAACCBQEAULAgnAWOQYEEAivQKRCQHMUR5aNUceJq3XMhGGJtw3UlI7VFUx2t3NeP3WZt8OMzBmneo+O1ZCGuWtVGF5gs/VDpjVgT9Ma0Da7clS8GnQfrKeuLxvUsYe9rOwAAQQQQAABBBBAAAEEEDgNBQgBT8OTRpERQCDCAhEMAaV0rZ7UQ/2+PGwOMtBZhh0uaZtm65GBi2WG4FTcNT0194m6p0WY5jqjc1Theuoz+3E1jPDpZncIIIAAAggggAACCCCAQEEUIAQsiGeVY0IAgdAKRDQEtKV4f+itAc9p1lbTPTYqQY37DFSvOvF+HVPK+tl6fNhi7TCzhMdVvUvPDm+pmsE0JfRrb2FY6NAGzXv1Nc1Z/beOx5uZmDMnYQnDrtgkAggggAACCCCAAAIIIHAmCRACnklnm2NFAIHgBCIdAtpKmbZT84cO0dQNxwKa1CNzcpHTMgAM7uywFgIIIIAAAggggAACCCCAgB8ChIB+ILEIAgggkDcCqfptzixt/k8n3ZHoZwl2faIXl1RQu46XqZSfq7AYAggggAACCCCAAAIIIIBAwRcgBCz455gjRAABBBBAAAEEEEAAAQQQQAABBBA4wwUIAc/wCsDhI4AAAggggAACCCCAAAIIIIAAAggUfAFCwIJ/jjlCBBBAAAEEEEAAAQQQQAABBBBAAIEzXIAQ8AyvABw+AggggAACCCCAAAIIIIAAAggggEDBFyAELPjnmCNEAAEEEEAAAQQQQAABBBBAAAEEEDjDBQgBz/AKwOEjgAACCCCAAAIIIIAAAggggAACCBR8AULAgn+OOUIEEEAAAQQQQAABBBBAAAEEEEAAgTNcgBDwDK8AHD4CCCCAAAIIIIAAAggggAACCCCAQMEXIAQs+OeYI0QAAQQQQAABBBBAAAEEEEAAAQQQOMMFCAHP8ArA4SOAAAIIIIAAAggggAACCCCAAAIIFHwBQsCCf445QgQQQAABBBBAAAEEEEAAAQQQQACBM1yAEPAMrwAcPgIIIIAAAggggAACCCCAAAIIIIBAwRcgBCz455gjRAABBBBAAIEABNKSj+pk8WIqEsA6LIoAAggggAACoRRI15HkUypRvHAoN8q2IiyQYn5TRZvfVIUivF9251mAEJDagQACCCCAAAIIZAgc+n6Sery0TbeMGa32ibAggAACCCCAQOQFkvT1hGf03J8NNGVcK1WMfAHYY0gE/tbMXk/r0/M664Vu9VWOJNCopippwy/69vdtKnTp3WpcLSTQAW2EEDAgLhZGAAEEQiOwc/WnWr3X+7aKV7tG/6lePDQ7ZCsIIOBDIF07PnhWPWdt1DGz5PltXtLElqVCpmb9zvPdDhkrG0Ig3wlwf893p4QCRVIgebO++m6rku37LK/LG9cOPMBL26n5Q4do6gbb3biqHpgyTK1L+3kQB37SO1t3m4WL6aKLbtAlcRnrefp3Pzd75iz2j9au/VrrUswRx1+u1tUz41dP/+5D5uBH6tFtjjaekuKq3qVnh7dUzTM4CExZP099nv9QG5NP2uGqthqnSa3KRbx6EQJGnJwdIoAAAtKS4W017lfvEuVvG6YZHavChUDoBdJO6siBf2V+kzk+sVEqWSrK835STupw0r/Zf/e1fOhLHPYtHvpitDpPXmMPAONqP6gpfW4K6Rtr63ee73bYTyc7QMA/gbSj2nfQdP/3b2mnpaKLlVa54jE51uT+HgTm6bSKzzoTrWKly6hEngUdpgvt/oM6GlylVpmyuey2uWW2OvRdLMd77kvV650+ahzQ+U0yv5GfMr+R7XdjXfnQs3qmUVn/u5Ku7q9LP11p1i2vdvfN0lOZLfo9/XtAZTsTFv5Dz03trln/mGOt/D+taZ159jz9u2+TQz9PVe/Ry7TLFgTW7qLXBjRU6F6x+t5/flkibdNsPTJwsd1BUcVU5dpGatOsSZ40+CAEzC+1gnIggMAZJcBDwhl1uvPfwW46qne7putoZskSYtT0zWLmJ7P7T9IbR/T+m1mRoVQ3Vh1GFaAR83bNV9cn3tOf5hCjEppo7Ni2IX9TTQiY/74GlAgBOQUWgXl4CvO5vwfmeNot7WediSpcTOfUuF5t2rfWzedFcky7rZrabaDm7w9CtmwTvTSpraoHsWrWKrkMAXfO66cu83aYl5TRSrxtoKZ0rO5/AGgrBCFgbs6eWTf0IaCtQIeWjtADr67XCdt5bT5Y09qdYY0c0tZqXPdRWpJkCwAT1HLYaHW5IOdLpFyePL9XJwT0m4oFEUAAgdAJpCTtVdKJnNvb/t5wPfPlQfsfaC0UOm+25CLgGgIqShdPL6G657qTStfKB4/qt+2WvxWoEPBvvdW7r2ZtN80mCtfS4y/1V9MwvKImBORbmFNgt35asla2jmu2rmsXXHetajACRGAVJbddD/0MdNwVytM9mvt7YKcw4ktHvM4UUrm67TSi102qFJHWgadxCGh5IRd70YN6Y/BNgbcY8xkC1tJT3carXWY34YhXwPy+Q98hYHyt0fq62eUBHkiS5vfvoambzG8tE4Ld/ewL6pQHY+EFWOiQLX7k46G6d/pGew+cUjcP0FsPXxiybQezIULAYNRYBwEEEAiTwB/Te+qxjx2vbwkBw4TMZqUcIaBU8v5iavGAm7eSbpYtSC0Bj5huwO1MN2Db2+mqrUaZsVnOCUsNIQQMC+tpvtFlGtB6qn6yH0VZtRw1Xl3OoIeikJy8XLY6cm4JWFE3d26kWn4WLNCxPbm/+wkb7sXCXWeO79aa9X9ow9qt2p2a3Sc3ct0gk7Xxm+XaZOtNa/3sX6GZC9bJ1stTZpQ+t3U9rqoaNjhfJXJzDoL2TTbdgHuYbsDmDXlUJbUbO1L3BTM5V1YImKgH276hXhUyDibr3+tqeO8RujM3x1ig180OAaPP66PVd9+UcbTZ/554+cv65JYg2ovumqcuPd/XDrPFqAvu1+wRTQMPeU9L+3RTtzuZum27HsSqQe9p6l8vbw+EEDBv/dk7Aggg4CTAQwIVIiIC7oK9yoV05+txincpwK5x/2jpR5bxAG1/LzAtAX/Xi12Ga5Gte0bhunr6jZ66PkwtNQgBI1KzT7OdEALm+oQFHThk7Dm36wdwANzfA8AK56K5Ped+r5+qLQtG6cm3HJNNybxourjjyxpzWx419/W73LnED3Y/66epzTNfyHY7jr3qMc178urAugFnFttT2EcI6OeJ9RT2hSAEVLq+fv5hPfujrStUnAnDJpkwLO+6xPoJEoLF/tDkRwZrob2jV/544UcIGILTyiYQQACBUAnwkBAqSbbjVcASAp5l5gP51z7cX5QufbOErkiwrpmqb1od1+ZDtl/lUoz53ZZu+3MBCQGt3TPC3fKWEJDvZE4BQsBc14pgA4fMHed2/QAOgPt7AFjhXDS35zyg9dO1elIP9fvysOOITOund0zrp1y1tAvWJqByB7sTs15Q+0nWwoHdNXmDraVULkMSXyFg0cZ6rfv/dHUuDrFgr+o7BLyswTzNvubs4BgsYW9UzfaaO6xx3nwfgit9kGtZ7/Vm2Jk3zbAzYXrh7G8BCQF9SKUlH9AB+/RKOWd6yh7zI1bxCSXl/xDprrM2hWIWKZdtxsarQnwkB6H1t8rl8+VOpGnnkezB74uXilXJ6ODKnHrshPZZmuLnZlvBlSCSa4Wh/rnOvpbrOu36vQv0e+vimXJYuw9nDuoXiu+wY/shfUhwKqNUpGR5xft/oQpjBbKci+hiLjPRpSppT5JSbHsP9Jy7HG/A67s9Ykt5bHcCD7NB+ouVfU/JWCPQY/R3R76Ws4SAxeqai9zKk/ZJQuI7FtOdbS1vZX8+qrlPppuusuZvDaOVtsyxnN8hYDhmFXbZZmyZGBUJ6seU9aGjotqMH632wXQ9slq7XLes37lgQ0Dn8cVCcK1xvbbm+A76qjzh+nuYrgumuM7fuxAY2ghCcg84HULAMNzfzasEp9lLc1MHgwocLHU4t+sH8HXIn/d3L/dcy7Ui8HtfCM+xxdjpehhsvcntOQ90/V+n6p7hyxzdcEs01MhpXRToaGoBVDPPiwZabh879XgugtlP8hL17jxTv9kewSreqdfGtTIdloP8ZIaAha7XhB4DlNmZNWvCkLP/q3e6POx3t397KVKTtDPZ/stURYpXUBnLI3bqsX3aZ36X2LKC4iXLBfDcmK7Dh/crOavHeKDru/fJLo+9tCpVOt60uQvkkx0C1rh6pt67PvPNcPa/17/lE00JuhJbx6w03b4nmm7fnmalC6TY+XpZ670+mBmzQ39whIAW0+wf6OYNxIgnVW7uCE1b84+yvpsxZXTDN02X6AAAIABJREFUY0PU58JtenH4BH2yI9U+uKP9k/m3a107UmXvIG3fei14a7b+74dtSrI3pbB+CqnoOZeqTZf2anGxl2nQrRdWM8X2ogG1tXLOZL380e9O407Yi1TyAjV/uLseqBvAtOqhr2P5b4s/7FTteY4LeWKDClrcophSDx3WhNmHNGfbSUcrl8xP1Fk698KSGn9/GdUwrWB8f07p77X7NXhhslYc/De77thXPEulzymqrveW1z0V3SSLB/bp7pH/aKNZssilZbSig2tdOqrnR+zWLNMi57Lbq2jWDS7Np08eVOc+h7TCrB99QSn98HBphT8GNl0dFk/UsNm/eKl/6zQkc8wjP2YdS/lzqSa8PF9fb7N89zK/ZiWrqMFdXdSjSRX/Q/eUbfrwlal60933LuZsVb26pXo/3EjV/AzH0vat0hsTXtPCjS7liyqsCle00cDHG+nU3Oxx/a7sOlvDb/RdczKXCMVDgmfDaBUuf6Hu6viQ2kTsumC58ZnzP/7pMpo55B2tOpyWhRJT5jo99Ww3XfLnNPV7YZm2WcbQyfzb9R4najB18Mt3NO3dz7V6r+WanLH1qMLxqnn9PXq0w/Xez7EZF66pGRfO9rG3CLu/sBZNmqSZOeqNzfAyPdT7Ud3u92x/tu/Jaxrz3o/aajnuTIDoIufosqZt1PPuK1QuqDDL//qVtaQlBIxpWEhV1qQ5WvtVK6SWU+OU+X73rzH/6LPFtq7AppXgkChteSZjRmGvLQFPaf/S4/ppZrr2/G1aGboU76zCZ6lso8Kq17WIynr53m3oe1jLVzqunTUnn21yxxR9MzxVO7b8m33vtf3ZtGQscXWsGvb3vr0cSsmL1OvBN/W77Q9+XJu8KtuuMy9O0Kur9irVMomyTGem+Bo3q2ePe3X4lY5mPBjHVny2Okzbrx/efVVT3NzbZbvWXNRUj3RtqavL+d+NxnbtmjN5tt5b51pGQ1i4vC5v1tZnHbQGmT6vbdbfKzl8w31dsCmna9/K+Ro/fZGba4M5L1Wu0v3dO3v/HrteFzpWlT/3AE/3E39mjXVfz/LioSH093d5q9d+3Y/DMOFBMIFFEJdc2yp5fn93eYZ4q9kml3tutEqc30LDhjZX3OIxemrOWsvzSubfWnqfOT3X51hm7Ky2GdfKzBZhtu/yXI185TOtd7mH2q5d9dr2UB+PvwvzQZ2xuheup0GzH9e19jpkGQPP9p8BhF97zAy6Hc0MuvZPYXN9mNJHjX31Mg5JXffjXNT4Wg/3Xay99sL5d+068sFgtZ71h3/3R1/fvwM/6Z2tZrqlItV16yU1VTJzeU//7rK99Z+2U+vVjtLXv2Wu2v7dV73W/6mUzHt7VAldetUITb+uqN5+r7fGbT+srF+0mX+7vqbHZ7DUpF81e9lkzdi8RQezh4zMKIV5SVXqKnW5qbvaVi3v5TnOMnmHHGMc1t80Q09/+a5WHE51fv6MLqk6lz6h0Tdeo3P8atjyj9au/VrrzKPyuVWb6boymUCe/t3XCcn5d+u1sGqrcWYs5nKBb+S0WoMQMF+fruybTgklJpzUrj2uI6qa4pvZbCqV268de3J8a83fqqvL5MFq6eZh9dD3L+rRCSt00OnhwB2HmTb7hic0pttl7gfKtF7AS9dR43IbtGSDm3Jmbdps79an9XKnmv6HJvn6LIWgcJYQ0Ba2fVz7mO6Zc1z7vJyb6KJFNPjJirrTW8vnkyf07hu7NOL3Uy7hn0uZo6J01W0JmnxDnMvF/R8NGrRPC2yns8LZWty7nJwapRzdr3bPHNYv5s9uQ8I/96jRxGTtMX+v0ehcvXurX6ll8KBpOzV/6BBN9Vr/4nT+TRcp9fOV9kFgvT9op2vDvCF6et7WjLFTPBctJrGJRo1qq4t9BHdpm+ar1/D3tPm4j8OMSVTLgcPVpZb32PTQz1PVe/Qy7fJSV6Li6+nmxF+0dJ2jlaDPB2WXouXuISFVv00foD4f7/JeB00wUenmnhr9sIfrTPC1ws2alhtfiQQlpu/RLjfnIyohURX27XJr63Hw4LQ/9NaA5zRrq7drYEaRitZQlxFPq+W5HkITy8O+qtVX46PLtcTddT7rCON05UPP6plGPl6yBFBGW93pO/pxeQ48Q3hirGMCmkCvUUJqxrh/1i7BJ/R5sxTtsFXlWrG65/GT+rCrjxAwLU2rHjuuNX+4Rn9uyh4XpToTi6l2ZZPiuflkh4BS6ZtjlPaFaVni7R4aF62rXovTReXdb891F9aHjrNv6Ku3u10SFHDavs81rM8M/Zj9Oj/ndopW1fnFtmqzY84f7yHgoR80os8kfZPk5neGdctRxVSv0wgN8FUHbWHY0vHqPm21dz+z7ajil+vR0T3V1EO4GJYQMNTXBZuRCSIWjemviaYlq9efXcbwsvsHaVjziu7HnrJcF2Kv6ak3rv3O5285m2GPF3qrsZvfgqdNCBjy+7s5Jf58T+x1sJY6D+3j4VqdDwKdoK4SjpXy/P7uFMyb+/FBcz928wWJT0xU6q5dbn+LlTLXyhnmWunufVVozrE1BLQNoP+CGn4zQKOWJ3n5LpuAsk4nvdKvoZtnp7yvM9ZhJ1T5Lk0f01JZo25Yukaa6bnUdMjLetznzDR/a2avJzVnp6Ne+T3TaK5DQH9+Y0ardNVEpW/dkTEBiT8hYLKZNfYRM2us7WhKqPGAyepVOxdftFyuag0BE+MTtSfJ3W/qeFUtnaqtB939/oxXy/++qaHVcv7e3L9uuFov/trrM6ej+FGqXGuoZjS7ynSOdvexhoBldUOtBK1c/5uJlT1/ouPv1Ovtu+mK8LcQ8X0GVryoFmNW2HuZ5GkXed8lDdEShIAhggzPZpx+nEXFq3aTJmqYaFKGQ6v11vzVlgDPNtV7M91zuWmpdXybFv3fF1khg7s0O23TbD0ycHHWjTamzBVq1fF2NT7P1tIrRbs2rNAHcz7S8gOZ7xGidWG7CRrX3E2rQqcLeIaD/e3pTWpWy7H88V0/auGS37Qvq0mbeVjt+pxpjeS5lWLoRPfp81dn6qsDwWyxuu7ue6d5ZxTmjyUEVKkYVT6cru2nztI5leN0x5WF5XgXka5V3x3VJ3uyA73iF5bWos6lst8oORUzVe+/slMDN2X8mjJB3/m1i6lT3eKqY67e27cma+4nyfoiKfPBOEoN762kiXWtN4hTenfyVg3dbLv2F9HI5yqqmWUfqabcV5sWjPbHwrhienVoBafxLFK/+0t1/892OY1Si4eqamjNcDqm6/ux3TR0efbNL6bMxWre5CpVLGrbb5LWLv08Z2s+L61tDpmHrc6mJVbm4Mm21lZ3tW6khjXNT6XdG7Xsyw/04fc7sx5ioxKaaOzYtp7fSB8yF9yeZtbFjMDJ/ra4+X/V/JoaJlzdo3XLv9Y7n/ygbZkP7ibgbzlstLpc4CEk2jVfXZ94T39mvQkspirXNlJzy/fuo09ztsiNXAhoQtTpffTEx3syfiib69QlN+uOW+upgbnWHPxzhT5d8IE+2Zz5UGxeEDQfrGntqoazophtW298pnbG19Kdza6215MDPy3Q2z9bftibFtXX3Nlcdc3D8/GtX2nOZ5mBsLvuAkmmtcBTprVARh00D/M1bmylDk1qy3bZVtI2fWPqzDtfbMkOPuJNN5yXTTccd08v1hAwQ8TeOuqWm3SdfYOmvOuXOtVB20shr3XGfA9cy2irM61vqKeLKhRRyu5fteT9j/WRpWWWz3odqrPlEgJ2uP+k3u6Vbu+GXbZrcTW7K1rpy5L19lBH62j7v1VLyeoa7L478Elt6HvUtN7LuM6ZltRlmhbWZS1idLbtunDgpP5ckqr1i07pROb3yFyDb36rmM51c06sIWDmYceY19jnN8/Ynqnpe9831+8//81qbXhWYoxunVZMCX60qPx+bCdzDXOE9Zc9NF2jGvnfqi7rNJiQd3IPM9hzRrhna/ln/95dU0H2S+Ghjfro05wtQD22BDTbm/rEMM3PDKDN/b3Wf27T3abOVItP0pblK/TR4s+0Kuv3gu/7u/O11dZxwXatvkUNrqmi0rbvyfefOv9mKHq5nnq5t25006okLCGg7a4VsuuC4/7j+XsnN7+54lTv0bEa0tDNAVuvC2UzQxNzjms00C0Nq8jRQMLc7xYv1bK/sgPHuDpdNb1f/RzjHO1c/alplWj9Ev+hha99o+32fyqhy1vcpQZun/jMtahx7eC7xwV03Qj9/V2u9+PiFdXw1uZqlHU/Xqrp76/K/t3qsQ66mfXUnxlPbcfvadbTXAcj/uMGHwKG6P7u8gwRl3id7rythqnHKdr82UItsrxQiypeTbfe2VDnu96rnVqyWY49ZOfYGgKaFyYJCdq/x/yuMb8PajW8XjdXy3iWMdfWD6y/4UyHR/ff4zyuM04u7iYG+Vtv9e6rWdsdL338mhDDKTgMYCiLXNb1Q0tH6IFX1zuCG9t12/49bqRL7C88UrRz+edOv2ccS/kTAq7UiLbj9U2qbfm8Hy/NGgLaJq+oWqOF2iaaC7O5P7/348daZy+nXUBnm2eRzrWqq5j26yvTWnVZsuPHTZHqz+jHFtc5XRxSd7yilvP+zzxzOv650NnXqJPpqdIiobT5r+Pa/tcyzVn+tr74J/MFYJQua/CWGXvPXVcYawiYuRsTwJZrqNYXX+p4lk37S5+ueV/fZ21PKl75f/qgdWMPwaJTccP7H2mfq+/9r9sbtijK/OaYa35zhHePebx1QsA8PgHed2/9cVv9vol6qUV2aLZ6UlczqOsRx1feZRBLpzc89i66DS07so45ZC4l5u+vmb/n/Don6Rvz1nrEioyBY+Nv1PNTOylHuwSXG3hUQkMNGdrF/tDs9EnZoMlPPquFmQ8SRU3z89dM83M/Hoxyd5Jy8cbNrxtF7kpnX9saAtqv1IXV5YFEPXq+axvpU1qzYIfaf5Oe0aqqsJ4aUklti+Usw7bF29Xi0zTHckVi9dSjiWpbwbU1Sqq+nfu3Hl2Zsb3iJsgbaII8y243fbBNd31le+SO0QNPVFEvS1PAH+Zu1UMrM5+cC6l7v8p6OKuJtjmsrL/HatDoc3W3X02+g/R0+gHiqbWpaX3y9ST1fNnSAtZTCOgUsHluvZqyfp56j3o/K3T33KXO+UdVVEIjPfd8h5wtB833ZOYzL2hO5g9fjyGl8/dYRS/V42P+l7O1jOv2DG+kQsA081btXvNWzR6JmXCqcZ+B6lXHNfhP144PnlXPWRkz1XlpvRxkzXCzmvXGV1UPvjJMrbKuV2s1rtMoLbFfWl1/HDub53C01kEvYVzaX++qR+8F2mr/6niZmc8lBIyreb/GD2qqSi7XTFtLhyG9X88Ol81b/anmrb7bsWv8LGPK+hnqPmRpxouiCM0e6BoCjorS1/89ri22QYtsrf5eKqydzxzRN9/aK5Tq/F8J1f4uWTPGZPw4ddcdeM3RrCBRJgCs+WJxXXNhzlZ56duP6ePOaTqUcTkr92hx3dYi5wXLOQQ8S+W6FlXjuwqZq6P1c0pHPjymD8afzOqOk2NcQ7eV2XqvCn4QcutDve17d8czI9XVtUWxaZX25UuD9bylJYv7a5dL+OLpOuO6PW9dwZLN9+8R8zLE/tDipafBoV80btDYrNavnlqWhCcEDOF1wRzlTtNNrovpJmevXh5bACdp5aRheubLjJcmnl4QuL4cMC062/QdqPY5Wo27hjSmZ8jrpmeIr+55Ti9Jgq+Hobtemy2F+v4u5/uxp2urXOuglxZnTseby2AjuEkMghMPNgQM2f3dalWivoZN6aq6mfc46/AIOVqkWWZRdztpQ2jPsWuL2biqd2rokFY5f8O5vjTxd9KNSNQZM57ipm/nasIb2Q1FPD0Dpn0/Xq3GrXSEa1E11PW1QbrD47XDOrtqzmdSrzUzN8ftdC+xPc8+qCl9bsoxhInr73S/QkCvQ0cE913LzVrWEDC+5nB91vyqrJ5bh5f3VINv1js2H3ebaRXbQ1dk7uzPCbrh3Y9lbweTY9zBfzTnrXv0bEbTW89h3CEtnf+InthsmyPZzT6yDswlBIwyPZqaj9VQMxyU8+eEVi15RA/+mtmaMU63NpunMbWCeOmZG9Qc61pnyy2tO0a8qK4XhHQH+Wtj2+eoU++PtMtWKk8vUiJcYsYEtIB7+3FrHXshx4/3HOP0WUNA6wOwj8Ev08yy7cyPdfsv1wTdPeYFdarsUiOcLuA+3v4cMuMddTXjHfl6+A1ppTvNQsCoGLXrVklPnuep+9gRDR28V+9mtK+u3+p8TXadTupkknoNPKDP7A9ZUWrcvorG1Pa0vexx/WxL129V1WzPsqy5SNebedzeGsd5X5nrRSuh5EntMVmx87iA6Zr94jY9Z2tOUKaE3utXXuG7lrr8ADE/umabmc48Ddnm9JDsNmRz3l7sRQ/qjcE3edzekWVj1HHi6oywy/2PJacfVIXNW8WXzCxMngqY/K0GdZ+sH+0tBj0EMLvmqUvP9x1dms2P48YDJpiuCh5uoC4/lCITAlq7hkSraqtRZnyNczx8s53HoPE5Nlmurw/e3n7tM2/Ae5k34Lad5HwAttYdV0fr32zd9BY8UddjSa3LRpkWOh+ZFjo5PtaH/cJ19fQbPXW9h5cmaWaQ7/ZmkG/HTzTP3Xf+nPU/df3A1kHffHK8IHIuwdpXuuvJzxwvgTyWMdfnwrKBHCFgEVnH/6szr7D2tU3RX+ap5KxLYtV6fBEVWew9BNw7+R8tes/RCjCmYRHdP8jzkATWZc+6uojaj8i5rDUEjKlfRPcMiXUJADOP55Qpe3LG2IXm30zrwkbzijkPp5DDLgQztaX9oKEPvKTvMwI2jy347ft2vje6/d45XWfKmh/FY8yPYk8/1Ldq2mOD9W7Giz5Pod3OOX3Ueb6jz1iUt8DatoDHcauy8cITArq2FAn+uiCncxJnuhJOUv96ng2ndhuo+fZWnNHmhc0002PCZVnrdcFny19rUOLvC6D8NjFIqO/vpjGKNeDw9ULaWgejTL2YZcY58/XyOjfBhmu9Ny15i5Yo4r5ruNM15BLTvb67rL/2/bk8BxcChvD+7jVssbbGytl6K+c4fdlHHOpzbL3O+Gwd7xRa+9PqzOVaF0wDBKc656bOnDqh5KPWMYpN6+H6nfVCt/oexv11vnZUavm8prbx8BvOOoGG392HM85VLr4r1nuJmSXMc68Ks6sj5rrZzvTscbQY9OOcWK+z5hlgoXkG8PW19+f7FuwyTt2BL39Zn9xSPXtT64frqo++dkxeZ1rVrTGt6ix3SD1int3t705zhIBLsv+m89S90yt6xNNzyUmz7ASzHfvze6IebPuGelVwPRrnELDaVdP0/n/O9XDIhzRr9n16brfjzWt0Ynd9dd8dHnq2BasW6HrpWjS4o15c51gv0GelQPeW18tbvz9+tfaNQIEJAa1f3ayBaN1URjeDQ2et6jUEDOQsWh8Sok2z9hmme4rL+gFdwF1+zJmH0AWmFWJeXlgD0Qjbsk7dgYvr7f4JXmeIev+Vzaabr6M0mROJWMt2eNlfumHhCUcrwHNL6vOeZb02sz785Q5d/6GjLXmOsf0s4/4lXJegpf/NeBWY9e+FdXsdMy7Xzydd1s0eT9D9pCKh1LT+UIzVtb1e0aBrvbxRcupO1UQvTWory+3UPCFYw29/xkNx/kF8cceXNeY26yvTdNMVrJPpJuposeTPWClOD8pupqt3GoDZ58DNzg/7gd7YgnpIsP4Idn277+7UW2eqcx2fJpRVxb4t703gvT1YeAsBAyqmtQ4mNNPkl9qYn2AuH1/11Glx5/F4PAWpTiGgrx+2f/+qj9Zk9BMsf4maXZ7jF19Ah+xzYTchoCwzAZeuFaVD60/Zu9lmtdTzEQL63Kd1Aeu2Egvp9plxGV0rsxeyhoDF7orT3V293L3+OqYFHdPkiFEdE4lc4+1NiPWtbLBdUaxj2vgIjm2l8jU7sFNY7eY65Orr9ODttveA9Vrkx7XavOaY9lg/Eyza9uT+RWRkQkB3EwNkH72364JTz4xq9+itUc09vlCybdE6LqTblwkBXRd8n+Oc35H8FgKG+P5uRqhaOLC7Jm9w3I9de9nk9LCODWYbD26aCXF9XFkC+l3sZlvuhtnxeTHzI9hws408v797DQGt14tAQsDQn2Nf10pn2iC+QxGtM4VU5qIb9EDHNrrZy2Rih8zEGG3NxBj2mMZTbzDbNevjobp3+kbHcj5/j7pUwqCP2/piRvIaUtp2GeB+rL+VIvIS1Mf322sIuOsV3frW/zladAUUAvq8qFgWsAZ8Zvioxov0co4xEp1DQF+z9aauG6L6H3/nCC+jzEQiPUboznD2GPPjcL8Y2UHPmedZ2yf8DRL8KFCYFnHq7WNeJt79rGnkVS1MOwtgs4SAFiyvP24jHgJ6SMUDvLDK+pBSupHGT+mgsA4VF0Dly7NFAwwB1y/YpntMl2DbJ2cIeMqMBbg1KyR0O2uv64Hu2KMmE5IdN5BSriHkcY0buUtv2NqSn19KK7s6ZvjNGg/QjAU4uUm6utrG/rOOC2gJD/0qQ27wA3149vUQZQ2kSpi3i9PMmG0+yue9ZZe1i6mfAww7tT7IOTaF9UaV2HykGUevkpcSRj4EtHr4N8FBJMemyGchoKcu377qqcsZdwqGPQV8Ti0U4nTxfX31TLNqKpEf3sS4CwGVmt0lOPN4zfimV75bQpfYJkUKVwiYEKOmbxZTeRfjgEJA2ziuXY5qzRbHRhJ6llCT271MEBKC7keBPrh4f7C1hh8y4wJPMeMC++hL6qv3wF4zjumjZhxTu4h/4yylJO1Vkr35hpmhsHSZHHU1f4eAzi+A/DL0VQ8CvC4EHvIEEWDk5v7ta91Q39+d6qh/XaQDNgz0d7Grga9WXW7NItcSMKT393CEgGE4x4GFgEEM7RDSOlNSVa+oljGeeGZlOaKdm/7WvqNHLbPFm4nyWv5PY9p4mKjRqRWzp5c2vl6C+/iCB33cpsfMvabHjLeeatZdB7ifgL/zvq5jufx7/goBbTMUf6IpOR6MAgsBpe/Ue8IQfWKffqCs2tzzpp729iiTS0N/Vs9v592fMvu7jG383+9Xb9BPv/2mNdv+cTQUsk3m9vBoDYnIHA2+S0oIaDEKfwhoZjbc/LPmL12m1ev/0M4cU/icUorlhuG2BVGAF1ZZf9D50yTbd505/ZcIaQjo3L23jJlA4JKsueg9UJ1I1w9bHAPwu5sA5IsZW9RjjWl/Ywn5ssb7swWDt6fpDnuIaBkXcMNuNXz1qOmeGK02j56nfueF8TSZ7rjNTHdc+28BLxN9ZJXAx0OUtSWGry6TWdu0lsG1ZZfTuDb+vq339gPH2jrGnybrkQ8Brdeu2PIX6rJz7VMSePkc1MZV2zK6s3oYeiBkVSgCIWDKHq36aqmWLF+v37YfNFGWyyctRf+kZEy8FKIQUH59D1zHCTPliimqitWuUcOGtVX3iot0QdliedM62xoCWkK4rUMPa9mybL+srsC2fwokBEwx408uPaHNy05p/5Z/7ZOLOH1S/9WJzFmiQxICSpv6H9Z3Pzj24rPloK/wx4/6H9jLAV+txKwvL/wdG856bXLTe8D6giVELwHzdwjofO2NP6+OatjGW/f2Ob5Tv6zfmzEWl5vByc+0ENCv65oF1JeP029Wd2FJzpNz/K91WrPX0ZHQr1ZBgf4udt1lbtf341qRuUgwD70hvb+HIwQMwzk+vUJAL78zbeMCfjZZg6dnTi7pfUI2n63BrS8WfXWtd1cvg63rgb4cCHA/wXwvAvjaBbxo+EPAdB3euUKzf12s5bvWa5v9gdD6OaXjJ5KVkjFucmhCwD817rWH9XrGUIO+Wg4GjBbECoEM6xPE5vN0FddxTWPL11Pn3o/odi+tgSNdYEJAi3g4Q8CUP5dq9Oi3LDMA+z7VIQkBfXTF812KArhESEPAJPV++oDMhJdBfopo2JiKutOydnZ34cyJSLKDxhqNztW7t57QoEH7tMDMAJHZ6m+XmZjk/9k7D+goqraP/9mEEFJISEISQu9SFFBEUEBQaSIgIogvoCAQmtJ7D703KRJ6EwERBRUEQaQoAkqQZugBElJIIwmEbMj33dmZTWb7zOxuskuePec975HcueV379yZ+5+ntGGJSYyJigo7Zvoy8Uu/hThnmkosHBJ0YgZKqY+r09yLrMyXD36g5r4ky/3KnN8ioK6bhvz5lio4yK+Zv8KOIiBLkPDX9uVYdFCUAdhSN20lAkoWkbJw6+AKTNsiynwp7iMnCr7wJjp1boNWtQPyTxA0IQLiVDq2T+UzAnO/0qOYNW0bwaJOigiozsaddU9weq8oA7ClObGRCCiOM5gfIqAsQYwxMH+wVWYRJvW9RdIHG0vzpDcGi6EOzN4j9tgXxK6sEgZjUMTIYd6SyKVXh/zDrLJ5VzI6SdfY+Pmu440iqQN6haS8Eyh65ovasfZ6GeOSvz5s/Hy3hwgo9jiSwSK3qJE5fm5EQGGQOhnazSX+MBvvTzfEk0WXXGNzoXStS37fERqV2Y78+0LJQpN+jT1FwMex+zFu32pRBmDL/bKNCAj8sKs1JvGp6E1YF1ruiy1LKDr/2bIDdqxLXwRkuaAtxAW1Y2dMVE0ioAiM1JdpeYlBWMiz69swYPJBIfMj02ncAlGjwct4vVYw/IKqo1awu9CL+9gxlWXnS+L/0zlFwHvYPo5lJU5QspiVuVfIbsmmImASBo5K5oPAsl+x4ip4mPFAM+yrOyaElUZr8R/uxKHlinTEsSQj7/erhOllH6Ln1FSWRj3Pyu+ndTcx/r+8mIK51oPBJXBwVCkLAfFlE9O9wMaHBEUPARIBRXOiKzq6uHvDU5a7KUtAMHUGuusnIbJymeRdbo/DPld7ChNVxrDYj5p8yOxXFL4VqqFxg4bMk55ZnNSZyvqeAAAgAElEQVStgFwjoNNr0Ht7JF8s30VAoXuCteKen3/HhQdPhIzjupBd/V/HSJbtvXmpfMjaZkoEZDZRR9tl4h5niKNyQaOfvFBDu54sioDPEDkuA6fP8clBuJ97ZReUed0Vfv5FUPJVF3ho/3A8E9+HC5mGSQRkVJSJQVLfWwqHCChm6AI3Tw+4y3oeG3kHIRHQ/JPAEh+dxCpu8PIsxt5sZPxe/AQ7hzU2f4FMwcGgMmuvlzEc+WKHjZ/v9hAB7TDHz5sICJYhe8vw0djB52gyE+5BL1Heq19g9+jX+I+DYndhixmETSxKpWudRMA8oFbEBMy6twaddn+Hu4KFn0vR0nixUmO8FVIWpUrWQv2SWi+eKITvnoLv0vhmC4MIGNB6Grb20YkYL2NnddCimam4E3kcm7/6LtcIzFSG8IIYAYmAIupSX6bliYDijE/MDLz5UMzt97KJ7FASLIjkbuA6MYGkukZasxSdLDuwQUw+w7GbjwmYjjkz4rBDE43eVq64yfh8TBKYFx04y7+vfR/itd2ZeOZWHMtmh6AFaynXWlDjMlwSEQvvY2UsiyXcoBSOd+OCd9nxZ2N3IXIH1p0r+YcE3QxbdfttwtyW+SAiSV5i9hEBdYJjF6+Oz8LGoYspM3tLB1VuLFLKiMcstn6Q4hYvvpa5CCXE3MLF02fw44lTiIwXZREszvbppSwjpqmscZK5WyhoUgTMwc2paTjJvmwUaVAM/5vrnpeR14IImPl9Gnat4JOJcF9D6i3xRN0qJo784rpsJAKKXZllWQIqdJV1KndguWvUxPKRZf2Y75aAN7B6wDTs03xI9WPZlZez7MpW3jAy9wX5+7cy8dfKUZm+3MbPd1zfjJ4TD0OTgFnhfWZxrHLfi/UrtPZ6ix3MKyB/fdj4+W4PEdAOc/z8iYBA5PohGPYLb+VhNgmCOEu8SOwTv/Mozi6qdK3nozuwI4hB9rEEvISwVSPxrea7tQrla07FujaNUNpocg4p8f6klBFvTnH4atMnWKnZjB3DElDyPSFjj3XIouobCB8xA3vjuA/fLjBMaFkwvSYRUMTdLiKgOCaPmWxPfDfsIALme2KQwiYCPsUaQYDjZtA2STny6uQy/X5ZLBn9zuXApVpJ/NWfTxSCxAR8OOcRrmniApbA9UW8S/IbXSph9WuyvrPL33nELwNuDTFl2xCY/U5v6RClYI2KkzIYxgwSu4RJPAiKxXIjmULFh/1KXZZgVZdSZrhJuI/NXC3/kAD8ubgPpp/mYyhJSwwif9qVX2EPEVCcREHCA9XSGuQGJ6WMCIKkxCASoWXe2Y9JU3fishAjT/ELvsT2NMVMioBAdlo2WHhaFsNYBW9v0X5iVgR8hn+/SMf5q3wncjMKm+qTzUVAmYlBFMUO1R2MODGI0cyyemM3f7DVdfuTJuaL9zojsT0VJAaxtITEY7CYeCPfRUBdhhb7Z2mwCvYF+fu3g4mAtn6+66xBaYlBpEyLThmlwoa2Emuvl9Fh+evDxs93e4iAdpjjQi0C6mXU5t1+IbIktCKEi+K1Lo6bXQ49V8zB//QzeYnvA5ntKDIGkHHfyS1qFxHw1iI0/e4QH4vb411sHjQUL5vsmBSBT0oZcQOOlxhE1vuE3El0sPLqP5eiy5JzfPzh8p2xaWEnBBVwH0kEFE2AXURAWa6TEsQDmRtrxKqBGH+MtydWsbgb309qln8xpwp4cZts3qbuwIDYUtClvA8ODwlgeZes++UmAgn2RGdkYA+z8uPjARYTKn6UGxewWZsSiD2oFQTLo7+/dW1bvlp88JSQfdeSuKKTWa4MPl46D5+EmOuFJbcK3QyRUuKmRO8Yi757BT+Nat2xa1ZbeIu6oCP4GPm7bm8l3MdmhqfkkKBmjN9ffZFP1uLLMiyvZBmWZbkEW5515SXsIQLKjNNoaQ1yg5NSJheCbiZXo1/1k/7E6vA/wG5d9quKD8d1ZKmZTP90XhBsZLVlds7MiIAmrzMrAqpxuvtjRMZxVxdBjdUl0MicFZatRcBHmfjpg6e8xZGU9iHexyQcaoxBEX/AkJDZ3NLBVidIttgNzMSE6KwZo+2L7xNT2SbFlafjz61rcFCzFfrhzc964y29g574ncKsNQtXRb6LgIBOYH22V29je7lVRrWy9gXd9i3y0aAXr0MrDvfKN2i9K238fNf5uO3C3CCXsazXvjbrraYiaz1eZL5XW9P5An++20MEtMMcW9ordedA5vtAgawZ3fdWSx+T1cyA5JOZx3nBqExHrAt9hFFTf9P8t6rGJ/hmRiudd1TJa1LxWpf5gUVuO+JnqQMIJHYRASMm4sVfz/FTVX4kLnZtZWbapAh8UsqImhCLkKoGmDl0FjoatUKUvJqsLCheU8XQZNR6TGxoZZWOfLn4w7MRY5OC6DqJgCLqdhcBuY18SReUMTHT+rEDLccEtPBVNfkoxn2xARc0SSskWMsUxAosiDZtLAIiPh7vz0/DLc1YVMwarwyzxtPY65n8Zd1JxZ8+3nizpHGrvaw/7qPBd+x7gYcrQrKzEZPlip5DK2C0KJ27Ng5g+RA3xMdkIVOUTdjeWMWWZyoLBy2dmH9GxQ29GChMrN7KxGqxCCcej87LkYm4KDqHYzfmXvkVc6/0MnXjsaycg+fikOZty8R9onPI8EGrScsw/CUTLrfpTPQaEI6/hWQxFoPn63VLySFBJ1YMG0PIu5PxVa+q5gX/5As4FVsTb9Q0v1YNqLEYF1cunGWv/ZXR7OXK8LYoNtpbBLQkbujFDpQSE9CCoKNm7k99mYtbvAaOD9qGrcSQmvqkxF/OTZURXSN2qZIpAmamXMM/Z1i05yqN8WoVidmG7SoCAmWneOPtZqaskvViB0pwBy7Wpji6jTK1VnMQx+KoHvxeiEVY0hUtd3taiI0qFnKVvoCKBRNLAofuxwGjApHYDYx9Suo0dylCK5vazVOwd+JQhF/n4yqWfHsSvu7/gkHhS2sGY/QRTbwKWNqrIQ5Kr2L75la2b+rd3zoWG2Y/iGQjYtVQ9hGSb9swJqE99gXWjg5DDxZbeT5mtjAvOqmv/4N/fF/Ca8ZicdpdBBSvCxfW3/WsvzYK5yB7r+anyrbPd0DnI5ukcAcsq/q5f+FX11ToHP1lbqU1pVzBwooXrAJ/vttFBLT9HNtdBFQYgzV36mWuGZ3EIOwUKO9jtw9CgjIRE8fZEFl637GwOGX2W1ybzsdwCx+b09i+2ZN9mOb9UySEohILJFI8jKy4B6VcancR0O9/+PGzT1HBRGf0YwdKiQlYt8lubGtkKhxUMr795lOE3ednxCVkMH7/Xwf29lqQP3b26sPOXho7JYUfYguy+7LbNv/OI7s6G1xAIqAIol1EQHE6dxYS3fgLaTYSzn2DsC8P4qbgDsZ1y7IIyDSiGt2xdEpblNM/iKujsXd6GMIjhaD5SlLJ22CBOWQVthYBmf3Vb5ujMPSiEOlV5Yr3e5XG9FrGDqw5eHApHv22ZOAuE2tafRyChfWNlIuJx3uL01gZ4SeKB6j9J61Q6MLO2c+4pquUxLmBgruwvcHrvEgw0an1BKzsUwPaFDfa5pP/XI7Pl51BkoDGZHD6WzvQZ8JPQvIcD9TuORVz2pcxELHUCUcRNmoD/hbuk5LNxzGT+jpGxK7bWP/FNHyrib9g7j55iAPzJmC5NrmEyRebdJaEYihLQsE/QMEOMkMWjkRb/UMji/vw9aT52Hpbm6zCxH1sZn4UHRJYfdG7xyN09z3eGpDtNaYYcn/Ncz/1QJUuLLlGFwuCoba/6UzYGrwaZwX+Kq/XMWnNIDQ2KwTa47Cfjn2TB2N1JD+/qqA2WLy4R14CC21/M6Pw45IFWH0+ReDC/iBFBOSE1OYjsHBQXUMrIiaeLpnCEjgJa0vFvlqHM7N+w487uuK2Kqgl5i/4FLX1bxJNX3WFSjlW22kshlevFRHgV5wLvN/4AtuHNrBs8W1zEfAZLg1Lx9+XePhFQlzRer0ngvTXRqYal2c8wd9//R8fO5D7SRABoSqCyrM80ZQlF9H/ZZzNwC8Ts5Em7DO+vTzRsYdlIUV8r1myzDB1y+p85FAFsSQ7czDQQFhPwblVMzD1WFzuOjRuJZaO3+aMwPzz/GyqgpohjCWKaWBgypaFy+vHY8wvQn0q9kFw9TR0MmbypvNRwswHAr13Bo9Gw/DNCCPrSE+o7DBrIYu7p8+avdMcXoQBay8K69LYfWePfYGjls1ErEEsPIKwB7M5aTV2MobXNyYEcu9eGzBu4XHEwBdNhs7ExMZ65ewuAjIj5DmfsjkX9jJbWC9yGBTt1cIqt/XzXc3E8r5LcVL73DC5rln7XMb3tXMwnd0r8G2IcfOGoKlFU8577Hk/nj3v+f6bfi8wcRdbIYyY2hek7BfSLEX5mmz2fLeTCAgbz7H9RcD8WjNZuHVwOSZvish9D/aoPxCbxr9h0ZJPV0gTVpTFsFIWVqQ1a13vA7fHS5/hq7FvGcS4V98/gPETt+eGN5EkAupYkxa8IGQXEfDOMjT/9mckaqbIgyX72ICv6ulvbtl4ELmexY78DlcEQwKutBQREG61MabbfPQMNHwe3zo9Bt1PXmaO5nzbrdvtxsKalt+R5O5vssqLjSsUx4tNwNG1W/A7DxWlXv8EnzczF65JVg9tXJhEQBsDtW11dhEBWUaor0eNw9a7QhZELkV09SZ4p1kFaLw2k6NwRD8wvDAsKSIgV1TlVQbNOvTAR42DmAjDvhZFHMfOPYfxb4q2TWlfw21L04Frs7kIyMb6LB0L5sdhq7ARce5ofhU8MLBlCTQJ4A6tz3D3djp+OMYOq3E5fGZQlnnz3R5lMdeoRVkKRk3g4/xxP514gFq0uXEB+X8o/2Zp/Ng+N/emnSdAz8qDEx/Kvob32ryEOjUCkRl5DZdOH8a+S4m6WVBNWjixL/+bxmLEz9pDMquvSjN82q0lXtFkz07B5QN7sPnQZSRk80MzKfwIIzfIyu1VGa0/6oIO9bj7BEi6egjbdx7BP4lqbYXoNGMeQg0OtEKFyQcwfOB2/KcVNF398XKrlni9ZnUm7MTj8n//Yv8vfyEqXXvf8deZsgS8uGcRvr1uOE1P7l/BxXhebCwW+ALqltVmC8srW7PDSHSrpX+tfrZclh0zsC4693wPrSryB9ukO2dw8hfxvDAR8OPxWNGpkqT1omMFJFxh2dLRPod9NXMf6bbwTK7IwO2DrzZrildDuNnNRPT5P/HbhSikCOsld4CSREC+tKt/bbT/qDM61OT4peDWsV+x8ec/cF/7sYYJDObXDBv7MGYVqj38sszwDdt/gPaNqkPTTWG/3vO97jr8cPYi9DFpASaeKl23ZP4vEr66c8VsLgIy+eVUOnZNfQbhjkIRFk8wpBUTnspyFoE5eHTmGaJYfFOmA+r+pIiAwhWer7jixU+KIZh7gCY+w40fshB5NCevTVPio7EVLorZK0d41alKJ+Az+4vKExUat0T7+jVQm1lvXP4vEn8cFM2vcLFJASBZd82wRYhGHXugS3M+23Vm7F/YuflHHL+fkSv4W7J207VC4ffqLp++h6bC3sqt6y3ivcustZbeBxFhH2zXuCEqu8fhSsQFHP/9BM5y/WPPOFXOM76fBvedffYFDV79OeEyh7P3rh5dtM8T9p4UeQaHvz+cx1Hli+Yj5mJsQz2T8XwQAfX3Mlf/l9GlU1M0qBukeZY+SI7FxYirKP7OLAx9w9hCNvw3ZXu1th5bP9/ZlFzfhgGTDwof+rjNtQRqvvkBerB3Bn7LZmvn9AnsEq1DlS/7yMQE3camrPhFw9YVyfj3h65tG6JBjWKIuXAXyexd+8zFRFQPZYfh8nq8dIQRllmeWbhLPUYWqdYO0zobWuA67PPdXiIgd9vZcI7tLwLqC6t2WDPp7L699QBPRO8glt5bdVemOLEk9xc5Hl264khuvU+iceFqvGChZ2Kt+7+GQf2aGI1XpvssEd6R2ryKOi9Uh3sce+8/fxg//hmd+0GOb1faO0leqAkbW0RL2zJ1StlFBMR9lpijH0vMoT1EuKB06VboWKMav99kXMf+a0dwMTVL99zE/iRJBOTqUHmjStWu7DnWDOWZfUlG8jl8f3Y7vr6flFunF3NF3s9cka0NW6UAq84l4jBGUmIqG29PgoeFtR212fUkAtoMpT0qso8IyHrKXuqnjFyPs3rigO4Y2AOoVje0xXbsusL/xWiGJJ2XlQCUC0nFvRj9E5W4ZomugfYA6qh12kME5Mb66BGmf/UQ38bn2reYJuBaFB9+EowpRq0FucuysW15FOYLpoC68QC11WZgwaxYbE3m/rsIWn1SGQtfykfo+tamRpsuytaoD1ujQjoqs26OzLplxwxM2Xs7z3rExHBcQ1pg6tQ+RixkdC/IvLobo+b+oGNha7RK1xC0HT0BQ4xai+RdkXw+HKPmMasR7TPcSGUqrxAEF4lBDB+K06QIKN5v5M6aSeGNm5NZ07HuilYgMFMzEyvqdp+CGUYsLk1dpexgaa/DPhOOt07AyP0xBi9MOv3n5rZrJfz99SnBfbcmhmyfiLb6Fmriw753EMr930PcM7tnS/u4or6+F6PmfI9rZusSeszmpGH/eQiz4L6YNz7HEgE5oS9ubQYO7czJs7w0tpiKqlCllwqxa1kCEs3fXfDqAS/U0puTyHGpOC2E0CkWwoTE2Bw8NXPvwcMFjTZ7oYZFyyFtp0TuvG4NMGHjMDS16N5uZED6wp2xMbN12LB6Js5csZwdUp1wCvMnhuNk7oc8E3ek5Hs4G/f2z8PI7Vf1DmeG9aqkWF9JGW/xSug5qQWuTGSW21wz+SkCcu0xi93lYUtxwOz7kTB+c/t/PoiA+pbApvZfOVkzle3VopZt/nxnU3J+PcYu+A339D/MGBmw1Gd87qUGwq9xikYT7ui8V8t8GrPwJQdY+BL9n8M+3+0oAmpuOxvNcX6IgIYfC+y5ZpgBSIOemDX8LUPPLTNLTseVXtYzyookjWbf0/U/2BvrPDvP1q+FoPMXcUPzZ2kiIERxAfMlOZoZ7vYRAVmDaYcwePMSHM809yKjQomy/dAVa7DuPt/JoJeW49dWNfR6rBsTMMSvHBKS7uV+EDU6M74fYGvv/nixQGMB8j3LCzuhNBwLVwuJgDKfWDrFyR1YhMNuIiDXBueWtnwZ1v4Tjyy9e9/VpwKadA7F0DYVcH/TMHzxsyCYGAuOqm/Kvb0PfLavxNJD1w0sXlTM8qnjoCHo3SDAsmuYNavI2a61lwio4fAM184kYOaBx7iY9n+G4oSrC2rU8casLv6ors3xYYLf9f1R6Pw797ZsGA9Qe4k2LiBYzuAxYeXQwzO/J4MJd3sXYd7uPAs9bQ9cfaqhff/B6J22Hh1YbBDNT0Kss8w7h7Fs5V6ciHpkwE/FWVJ92A+D2tU0cEEwOXLu3lsTju1/GbEKU7kh+OVOGNG7LV40Fg/KSKXcAX31nC34JdcSRyikqetjTB5SFb+OmIy9wm1sSrCzyyFB0xXm4nb5AFaF78PZB08M1yDXz1ptMWBgJ+MxsMwtIebyM6//lzgmCFrSvmrbSwQUxspCKcxZcwRXU/U+hojH6fsHJvVkFnmavdfEC4f+YX9xU/xnas9mljr9x36O9ypKjKfIrFxO7d2AdT/9h9gsXUtRDW7X4ijzQiv0UzAn6jOr0H3xH4K4I+Ojjx0sAfmlk4O0009wYiFbh5o4m6If0/G86xfFyyPdUbFkFg61e4oHwvOwXJgP3tKzchKLgJ6dPdCx1TMcn/YU0Q+Q50osVO/ZuBiaT3RHgFF3a9OLOi9mnpWxlkw+4zkrtLcxbGg3vBwxDx3W8umTLboCcm6R367FV0bXDG/Z1rdvT7wtdQ2yNjPvnED4uh04dM343lqvXQ8M+1BiHDYmsoUvWoN9BnXx4x05sgf7SCO69/NbBNRQZq54x7ZiBfsAEJmSZShMM2u0Sq91wqj+LZkVo4k1ki8iINc2cxnftAyLjLzLcX91cS+Nuh8Nwqx20qy2OfdM+Xu1PgPbP9+5d+Ejmzdh/YlbSDayF4rfh2XeyswULRoHlizCV0bes7kPDW6+ZdGq73gM1rf2dBYRUDM9Vj7f7SwCarpogznOFxGQ66td10xRFPcOQMVXm6HH+63xcrDE9wXRbSh2CTYV99X4zmUvEVBYgybeuzTv6D2GYmwbNTYOmIZ9mm9eEkVAiCwfZQmepp/vSv9iNxFQ81i6hW9+nI5Fdx5AXwss6lEZrRqOxpQGlRH1a090jeAjTyPgExzs1V0v7Ix+YpCfMLU4+9By5Aecf6z3nsksBF98aRQWtWiE0g4gAOokxLIqBqQziYDiOOGWYj4rXbnyriMRUB4v60urM5hSn4h7zMUjxac6alUIRrCvjAeDyXgOWUiJS0HMnX+ZLl4er1QpA/8AiQHirR8V1WCEQNbjp0h4rMZ/kVl44u+O+gFF4cf+Z+jc+Tzg49ZfLG4ZW9fiQ1RQO6z+8mNUlDJkFtQ8Nu4urnDpRoPYvVLG38o1ndfHB8zRoXaNEPj7+UtIbGG8s+r0RCRG38LfUUClupVRLrcu3UDvDT/fjDBDQwEpBKwvwzFMTWWub8ylrBjbFyr6w9OKMWs6xO1ht67gOksM8mJl5fysH5xuDZkp8WwNRhmZD4ktmTrsW7tn6zWv6Wcqc32z2bpmU8LW4vXLLDVRlVqo5kD7vjo5G49jnoHdJijJYvmV9HeFuwxLO30R8MOB/MXZacyCkLnUxF36PxSv4wL/0q7wkK0YCBMjinFnVdZF7Tzn7lup8K1RHZWDAuGrtG/8aJH2MAn3brJneypz36pbASE+Vtap2RficIu5SWZau7fafLwS71eZxTT7dUZi3piDfeAb5GMQx1ZmtbYvrtlvonGdc2H14fZsX7grnW+b7dV2eL4L6zojkduzn6I0u1dCfHzlvQ+boq//7hDsaf1zz/YzbX2N9ni+W98rUQ383mWXObZpP1llDrlmRO+SKhYnb/Ec/C/E1gO3pj7Rs8lG5848y0c5rs/WjKEAr32Wxp7DD3GbhQBK9KyF+kEhKONlwTpEp7umswM/Zq7oyUm3cIppiNUrV0Mln1LwcQjxjx+AOHmjxQ+iZqfoBlbnis1g2ee/YtnnJcSPKJBpF2dD9mYJJlezBJMF0pHcRkkELFj+8lu3Jqir/NboCiJgNQFx4HwVC4j8EwuI/Fz/1Mz6JdfqLAgfLmTx3fRjED3XAJx0cDItfpx0lE7VbVMioG0HIY5x5xhfZ207PqqNCNiPQKF7vtsPJdVMBHQIiK0AC9o9Nt+mRpx8RILnUL71yyEbMi0COmR3czv1AFuGj8aOaPYPbsxK9KuxaKVUt1MfxbjuG3BBU7fjv78pTfxor/kkEdBeZO1VL4mA9iJL9cokoL6+A7NPv4oJPc1kllWzFPCDWQp4jVugs3/ZY4k3ln0NfDIIrczEHEvePw09tt7gXc+szeQmc06ouBUESAS0Ap59Ls0fEZD1PWYvBo7Ygzvspi3GYnxtZTG+vO0zJKqVCDgFgcL3fHeKaaFOFhYCOu/OPmgbthJDahaOwecl+SnGYmovw8wWShWi552Xc4qAeYmwXFCpy1ys6lJa8USJLQpRpiPWLemi5zKtuGr7XCh610Txhpiybggay/COsXWnSAS0NVF710cioL0JU/0SCKgTjiJsFAv4/sQFfo36YMGgZkK2U9HFLC7M7lmzsCHyMf+PDrDhSRiaiSIsNtL68RjzC8tezALef8wyfn/8or67PYvVc24Dxi3UJg6x/gGnvL90pWwCJALKRmbvC/JNBGQDubF1JIbu57KTS0v4Yu+xU/1EoKAIFL7ne0GRpnaJgDEC7IPzzDFY8i//7qyq1h3bZrWF5HxXTg/1NtZ/MQ3fxrG4dmYz1Tv9QK0cgBOKgCxW7ay+S3HyCVvXLDzUMhYeqqpiCunYN3kwVkdy8Q890GTUKkxs6Kq4tvy5UDexjkeljpge1gW1rQoZo7znJAIqZ1cwV5IIWDDcqVVdAvrZIbkA6zVqo169GuwrTCwuRlzFhUhxIg4PNPx8MYuN56xf9PQzorEg44GVUK9OHTSs7IvEWxcQcekyIuPzgs9b/4CjRZevBEgEzFfcUhrLTxGQS8ywd+JQhF9nL5SqIHSaMQ+h1Rz9hVIKRSpDBGQSKHTPd5l8qDgRsDWB9Es4eCQWz4qn4NLPh3AsRvh4zp5FH85mIWUq27pBB68v+QCGD9yO/5h1vrQEdA4+Hrt0z9lEQJG4bYsYl9HfY9Dob3Gb5c/0YB4c65gHh3MI5YzDnLFYdj5DSFZWFBW7TMfqLuXsskrMVUoiYL4jt7JBEgGtBEiX24qAOuEfrJ71JQ7E6GVl1W/A1R/NvwjD2Ma+tmq6gOphmSa/X4Bx31wVMrGa6oYLvKu8jxnTO6FGAZp5FxAk522WRECHm7v8FQHZ8JP/wqyxq3AyhbNAqI7QWRPQqSwJgQ63MKhDdidQ+J7vdkdKDRAB0wTOLMf7C8/gqbiEyhMN+89DWAtnf3dWNvHJfy7H58vOIIkJgR41umPplLYoR+/UIphOJAKqH+LAwolYwQlfKl80GToTE21xJsyMw6nT0aj+xsso5VRrIxv3Tm7Gki2nEJmShfoDtzG3d2X3iTVXkQhoDb2CuJZEwIKgTm2aJMBcYC8fw949v+DwtXikZ2nT0jNLOc9A1HmzA/p0a4rKBWTqbJeJY27Of/zwE7b9dh53k55AO2K4FkdAmfro0Ksr3q8dAKd6HtkFlJNVSiKgw01YvouAHIHkC1gyZTEOsaTkrwxcz17MSAR0uIVBHconAoXw+Z5PZKkZIiAmcIeFoxjIwlFof67+L6P/2M/xXkW3Qg0q+Xw4Rs1jIXbAEkhsZQkk6MXaSUVAIWEibCgAFuo7wzaDJxHQNhypFiJABIgAESACROB5IDzh2esAACAASURBVMC+Wh9bfwjF+vyvQIM2Pw8oaQxEgAgQASJgiUAWUuJSkMkVK+aLYN/CLf6JaakTTmH1wWIY2LMBfVy3tIwc9u/Z+HNrOFJahKIteVc4zCyRCOgwU0EdIQJEgAgQASJABIgAESACRIAIEAEiQASIABEgAvYhQCKgfbhSrUSACBABIkAEiAARIAJEgAgQASJABIgAESACRMBhCJAI6DBTQR0hAkSACBABIkAEiAARIAJEgAgQASJABIgAESAC9iFAIqB9uFKtRIAIEAEiQASIABEgAkSACBABIkAEiAARIAJEwGEIkAjoMFNBHSECRIAIEAEiQASIABEgAkSACBABIkAEiAARIAL2IUAioH24Uq1EgAgQASJABIgAESACRIAIEAEiQASIABEgAkTAYQiQCOgwU0EdIQJEgAgQASJABIgAESACRIAIEAEiQASIABEgAvYhQCKgfbhSrUSACBABIkAEiAARIAJEgAgQASJABIgAESACRMBhCJAI6DBTQR0hAkSACBABIkAEiAARIAJEgAgQASJABIgAESAC9iFAIqB9uFKtRIAIEAEiQASIABEgAkSACBABIkAEiAARIAJEwGEIkAjoMFNBHSECRIAIEAEiQASIABEgAkSACBABIkAEiAARIAL2IUAioH24Uq1EgAgQASJABIgAESACRIAIEAEiQASIABEgAkTAYQiQCOgwU0EdIQJEgAgQASJABIgAESACRIAIEAEiQASIABEgAvYhQCKgfbhSrUSACAgEMlOu4Z8z13CjaG180qIScSECRIAIEAEiQASIwPNP4MpxbLmfhapVGuPVKp4o+vyPmEZIBIgAESACTkCAREAnmCTqIhFwSgKZkdgSthg7b2YghxtA+c7YtLATgvJlMOm4dvI0rj8231jwi+/gldL50iFqhAgQgeeQQHTEr4iINz8wr8qN8GZVr+dw9DQkIkAEzBG4s3UkBu6P0xRx9X8ZgyYOQduyrgSNCBABIkAEiECBEiARsEDxU+NE4DkloL6B8BEzsDfuGRugC7zLvob3PmiNTk2qwDtfhnwb4YMmY+9D8429MnAbZrbIlw5RI3YlkInMGxF4FHEPOY8fI8fDA6ri5eDV9BV4lbCh7UXWIzx5mIb/04zFBa4BwXBzs+vATFae8ygWj/4+gcxENt7HbLwe7JBZ7S341PVXbm3yJBEpp4+K6vSEW4Mm8K1YAioLw1QnRUOdaQULd394+LlbUUHBXHpoZg8s+dd824HvzsDmXmQFXTAzZKxVNbIePYNbCTnrje0xMYn8By2JvyJegSguYf/JeXQHKSfOIuvuf3icGACPFwKsv5cl9lFpMW7/yUx/BqljtNSOtj5+a/WGe5DlPcdsnQ6yV8dfPIaDRw/gxz+jkcYtHlUQOs2Yh9BqJARaWhP0dyJABIgAEbAfARIB7ceWaiYChZRANiJWDcX4Y6nc2zxC3p2Mr3pVVS5MKKJIIqAibE53USbSdo9H9NLjUD/lBGf9nwtUZZrBf8EcBFeXc+A3BkKN1PkdcXdXjPDHEPhu+xnlXshfaDmxxxE9YRpS/00SxEi99l394N5lGsp80QweUgXKrFgkfjkKcTsv4ZkRlaNIYCP4zVqKkPqmGcZ/Xg9xp61g0Wg6XlzRwYoKCuZSEgELhruiVp/cQ9Ku1Xi47TCe1pgsc73tw80GU2DBuFynW0U//gYvjDSzQSSewr3Rk03ey0WKlYXHyOWo+EFliyK8Ih5yLtKw24TEHw4j6/4j5Aj7hMUxSmkj6xLuftADqbFC4eCeqPDjSJSQcq3RMo6xV4u7pr6+DQMmH0QM46YKaodlX36MqorHRxcSASJABIgAEbCOAImA1vGjqwuAQNqNP3H8VgbfcmAdtKsXXAC9oCZNEkg/hFF9t+Ayd0jwbYEF4X1QJ99xZSPtYRIyjOhCJ1eOwPr/+A45jiVgLP4+dAn8GcgT1V5vjOrkPWh+1bCDY3TvAUiKTLe8ulSl4DX7G1R6x99yWRMlci7NxbVe30Cd+/f8FwEzfx2D2xMOIVuCOZKqxiCU3RgKH0tCION4r+unSLlvTEQVw/CCx5QfUKWDcYbWioBF3piNOsveVTw/BXVhZko8Up4atn53z0xMPZbEP6bIErCgpoe1m4mM09/g4ZpvkX75fq54Bbmi83+L8F+PraL73/KQzAlkObe341avBXgivMqYrs0FRdszIXDqG7D2M4blHhsrwX9oub/oN2RnG/7dehFQX7BjbVgpAjrCXm1IKhsnFvTH7LPcZlEMjYevwZTGZA2obE3SVUSACBABImAtARIBrSVI1+c7gRubhuGLnwU/z5dCcWBSs3zvAzVomoD6t3l4f/VFjdtUsUbD8P2IBg6FS2y54zgi4HFM6hqOvzWkAtBp7lKEVnYobA7WGTUejm2BB0cEAVDlA/eOo1Fq4Dvw5VxKOVewqwfxYPwCZMQLsp17QwT+EI4gJTqgUaEsn0XAqHBc67IKTwUBsEhgC/hNGYqAlytqXJLVSdeRujEM8SJrvqJdt6H6mDpmrIgSEf95R2bBp+VYCp6DZ6BU+3rw9mPyyYV9iBEzVJWH74Y9KFfH0MU6ef0wJF+St0yyLx/DU41O5g7PuSdQ+R0bum7L64rNS4ufUyQC2hyvxQpzHl3Bw7XLkfTdWeNWwnJFwLNTcWXgD9BI5a6ecPG0vFaLfrQO1UKN2HtlnUHUe6F4xGvE4O7lgDlj4VeTDy9geC+7o/iEn1D1AyWbl0VUZgokImFsN8QdSdCxOi7i4YuiVeqhqC+z9X9nDCq0C1HcSM6lRbj2GRNXxR82rBEBHWGvNkXj+EK0WxHhsO9GiieRLiQCRIAIEAGnI0AioNNNGXWYREDHXgOR64dg2C+OawFDIqBjrx9JvdOxyvGH9/KfUPF1I3YyegdCl04bUWtifUlNiAs9WtYBd7fe1XO/zU8RMJWJda2ZWMcH3StSZxgqh/cy6u6buW8Qbk7/g49dpqqPUoc3ItjH+JBzjo3B1VGHhLImBD7mKhw34kPEC0JhkSqDUHFnKKw2VE39BjdazsUTrqPWHPplz2b+XEAiYP5wNtZKwoQ3EHcoQ+9+ZaEBiqmQ81T4KCBXBGT31UV2X3E/Vyau12TiutJf+qrOuL3hprx72bMVSh+ejwBLlr1KO2VwHbPQW9QZ93Zo9z0XuNR6HwHj2IeHWlbG68tt6z/ce7+7oRWyFftBwe/VZibg1jZ8Ou4gNHmEAtrgy1U9yCXYZuuVKiICRIAIEAE5BEgElEOLyjoEgcItAjI31+irOHs5Fb4vNcTLwfl2IpA892KRrW6/TZjb0rFcXgqfCOj4a0by4hIKPlr0LqJ28LH5VM0XoObCliat3XJ+HYmr447wQlfZ3qj4/VB5yWlEFnhFqrSCR8YhZGj8tvNRBMxi8ciasHhkmkFUQck9e1C2gilqd3H/ww5IvsP93QWe0/9GZaNetmomLDZiwiLvBmzWrS+Vtd+Ota/RIP1RYu0RVJCvpep0OE8IcUHx0UdR9SMTSqXcxeEg5QujCKhOj8HFf64gxedFvF43qIDcV8HWtSg+JYuRWeztTxAwoBv8zo/IFfLkugM/XtsVN9dc4++Vnt/ihaFKI7qdR1Sr3oIVoKV7ORWxfd9CQgSfYCs/7xOdDwRM8i8+fAsqd7dtbMJ0xvQOY/p/bGzF3m6OnCNHeHdrpSKgI+zV5vYfsQioqocx34wC5SVzkA2bukEEiAARKGQESAR8TiZcnZ6IRFEANBdPP5TyskZ8yUJKXAqLpiP8ivki2NdawUkvTpvCOu0lAuoyZIdnP2ZhZNnjR/oKymQv9Kmi4FEunvAP8JSVMOPG1pEYuj9OyFDowWLazWfZbZlPjgP9HFNkywNku/7p3SMszo9vEHNLVTQX9nMHdoY1IxeZ+JDvPvx3VOtuRkCKYW60HZgbraaR1xF0bhUCJTd4F9EfdULSTe4QHgKfTfNRZFwPpOS3CCi2fCzREWWPhqGkmTE8HNuIuUrzu7dpce8YbjcZhnRNserw27cLZcx49SWHNcf9/SkW6pQINuswbr01Ghlc2+5vI/joIpSy9vEisen8KmZzEVCdgYSkDN4dlcPmEwhfRZuNbZ7DBhxv7UAf5rLKJT7gfh4sVMc6FqrD3Dq111zEf/4qHia2hO/QgSjVqFzeM1ZkzSdXBBR/ePCYEsFiYyrsPYstepXFFtWE15MgduWwPl9hFohcRvIizHqxFkueYylTt8KeiS5jFnrvdRP2ORaT8OPNqD7SXFgBBS2KwxsEd0P5uUXxoJcQc1ECF8MWHWSvNodCLALiRQzfNRatFKCjS4gAESACRIAIWEuAREBrCRbo9dlIOLcXSzcdQER8liAMaTvkArfAF9C5Vz983CBAutCUGYUf14Rj+19RSNELAq1yC0S9dj0w7MOXUcqkOCbOyqp9ycnCrYMrMGPbBcRm6Qafd/Wphvb9B6O3qT7qvDTJgy0tDpM5hkXhW+FVdB/cF+9VlHZCzROYvNFq0moMf4nF90n4BxuXrcO+a49yD3DakXi8MRJ7hko1qbmEJX3m4lCaiAPLMreaZZmrKA+NXUvbTmSzTzet7V/mnRPYsmUvfroSjyz9BA0qN5Ss+gb69O2Jt82sGSkZRY2PXu7BwTnWjNyZVidFQy18oVCVLAP34mZqyNqDG6/PwBNNEXkiYOb2T3FjyQXNAZyPr+eK6NzDcX5aArIYhw/TePdGF2+4B5l3x0ud34ZlMebTzJgUAW8uw38fbeQtbyQIi2Cuw5e1rsN1RqP6pu5M9lb2E3N1+2wfagwqr6wiB75KkQgoft5p491yz+Tly7D2H/39hj2fqr+NYUO74bVSUj74SXkOX0GYNjapTHfFiFUDWUZ4nYcTPly4CH0KYGpzstRQuRl5SbFCBMz78OCLEquPgb0aKPo9ZXvKNbancD9JyXDEHwACmVj28zjY3WZWfK/7sY8OP7KPDtJegSQySWSCXys8vKT9uPIDyrsuz0u8okAEdJi92hwBEgElrg8qRgSIABEgAvYmQCKgvQnbq371QxxYOBErzmfoiX/6DbrAu/6nWDnqLTPCHX9N5tVtGDLjIO4ZyQAnrtU1pAWmTu2DBkY/8YtFwHLoubQPsGw+tt5+bIZEUZRrPxEre1Y1FCvtKQJKZajyRN3uUzCjfRmLYqquwLQJQ7OXYvD6CKSZyOYZ0n4O1vcsJ3GVOIegY63IJhGG4mLK+5eNyN1hmLD7NsytZr5jHqjdcyrmmFgzJAIqnj75F4oD+ksRu7QtJG7H9bYLkMndu7kHYbGFTD6KgLJGncoO2G+yAzZ/kUlLSbG4IOXQLVc0NNlnkTukhZiFsobtYIWtFgHLd8a6/sCcmXtwk1ewjf9cQ/Bh2Gz0qWZGCFRHY+/0MIRHmtu5PFDlrVrIOnoO97iWnFgENMlKsQgovqesu+/FFoUWM+smnkJU6DA8itLmJJf3EUPpLSG2+rWHSC8W7Fzah+OFqQ2hkrsfiQfnLHs1iYBKlyRdRwSIABEgAjYmQCKgjYHmT3UpODRzDJb8q32hL4pSdd5Gh9YN0aSiL5LunMHJXw5j36XEXMszj/oDsWn8GyZjYamvb8OAyQdzXXlc/WujfZt30KRRBfilROHksf3Y9dutXDFLxSzQljELNMOoOGIR0BshQc8QE/cYKq8yeLVZU7wawvsvPYk5i32HLiNBKziqgvDhbGY1oJ8RNf0mfv/jNoTclZprE/7cg52XBYuDsk3weRvjsXm8KjfCm1VNha/XY8iEvgqNW6Jr84aoFQzERJ7B/h0/4XSi9uXbAw0/X4ywZubD4YvFnaovvYiYfy/mCkYu7t7ISyiYjYy0J6g3cBtz55W+am7sGINhe2OEeSV3YOnk8koqFQGTWdbjvizrMX/XMXG9SjN82q0lXgnm1nQKbp0+gZ0/HMe1dK21qw+zBl3GrEEND+fREb8y611x729g37qTuKv5J2/Ue78zmgQYGx2zxm31EsrIGLgzrBkZw5FZNBFxA9oh/hxvNig9MYj4OhYDb/VBZvnDWRY5vgiYw9wNrzF3Q83OZU5kk21hxOICNmBxATUklYsRT5kQc0NIXGIpnqPMyXao4laLgN5BCMmOQ8wTtteUrYt33mT3vcbiNRPRp3Wf76afx1z5bPy5eBCmn84TAPnn+6tCfSm4dPgoTkTpWarLFAFxaxdCJ+3L/YhYkO7AJheCYhFQfN+ztX9iPFx3bULKsb+ReZdzkS8O12r1Ufy9HghqVUuT4dfUT5qrPvMgOL8Kt4eF42mGuCbl9530m+MGS9bxIUvWwV3BkgXt3IdyVTKR9uNKJGz/FZnxgiLtUxGeHQcgoGsjeJqzxNZvOJFZZndkltncliy2MlQsAjrRXp1+AMM/286eItxPrlW/9BmkkkSACBABIkAELBEgEdASIQf8exoTI3oyMUIT44qJZ63GTsbw+oZx4ZLPh2PUvOOCsOeDtmErMaSmkQGpz2FW36U4qXm3c0FI8xFYOKiuQSwf9f0DGD9xOy4L5V7ouQxL2uu3KxYB+fr8GoVi6RdvGFoiJrM4aOwl92/hnbJE83HYOchyxj1bxASM3j0eobvv8VaUxasjdNYEdCqrL9ak4NyqGZh6TIjB59sMc1aGop6ZOIGGFl5s/PU/xMjerY0k8ciGWu2KojLjDmam3MWVyFT41aiBilbHabT1Ar+H9V+Mx7dxXL3F0GTUekxsaOs2rKtPmQj4H5aHzsQBTUg0do+8Oxlf9TJiucosbraMn4Add3khUFXjE3wzo5WERBT2iwnI9cOx14x182nyapbVNnFOKB7sF7JbejZD0L7lCJTgS5f5XShuzj6j2R9Uby9FzXnNhThcji0Cqq9tQlS/pXiiEQ5YLK+e21kCgxeMI0pllo5vM0tHzV8bIvCPcASZdfmzhQgoTlpiKSmCndZFPlVrtQio2UB80WTwNIxpahjSQ/ejRF74CYPhXV2Pj6f+xj5TCHtX6wlY2aeGXuxSFhbjxCoMW3kGSVqrdbkioGajScWdyGtI8q2OWhWUxke14wQpFgF/xq2GE5ChYeOCIqpn+D8T1v1FStSBz8xlKPe6v9GBiOOZGrcEzETKqt6I3nBVyNrN2sth7Wlqyw8RUDRW91YI3loXqX0W48kj3VAuuYNzrYwSi9eigonx6kIQC3Ze8Fr4Gyo1F16AFIqAzrVXn8KUbqtxVrN2mKfMijn4n/QAtXa8MahqIkAEiAARKGwESAR0uhl/gC3DR2NHNP8yWqnLXKzqUtrkKMQHkWKNhuH7EQ0MykbvGIu+ezUVQsVckMIXdjJpaaQjQBo9JOiKgJasAdJ+no5um67xL7sSDx1Wi4DqvzC995f4M4tr1IMJVauYUGXKlUo8HheWiGM9s9wz7XalKwKaEYucbt1J7HDMboQO+4F3J3NrgAkbh6GpTJFTYkuKiykSAcVuPG4NMWXbEDQ21QNFGQDtKwIqhuU0F/6DGJa9MjeRUcodPLl6BzmCpXGREg3hv34lSleSsBgTmdj1AbN444Q0z1YofXg+AnLFMccRAR//NAuxvyYIM/QY2VcuICvxqSAWFIVbp6WoMPENM4lqziDqrVA8esQ/SzymnGbJDkzzEVvwKRUjxBlHi9Qbh2rruimOK+joS9N6EdCSpXc69k0ejNWRvDhjPAZuNk4s6I/ZZ/m0OKpq3bFtVluTyTp0nq0Sn8eOPg86/VMqAurEFZUwYpUPPCd9h8odDIVAsyLgk/O4338YUq6k8vexZ02UXNoJT/vNttoCV0Kv+SJit393L6iy0pEjiJ8qb28mgLIyOU+Qk6bda7iFxSwGN+xBuTrm99dMxv+m1gpY5+MKq0OJCOgke3Uee917tur/VuDL9x0rsZvkdUIFiQARIAJEwKkJkAjobNOnI0ZIEFnusox9o1jGPm6cRpNIiC2cvNFi/JcYU99ckHFxXDpjXzJ1RcBXLLm7KoiRYq0IqCM8Vv4IX89tbzaDYdr+aei69YZmpZgSUrXLSEcEfB4PUebul8xIrB49G/viuEMpE0DbT2PxDis53B2mSASUNQqxoMfc3CUFxycRUBZig8JiKzXdPxap0hNl1o5EyRJSWkhF/NB2iDvFBSDwguf0n1D5XbHpoOOIgOLYYrojKwXPKWtRsUNFi1lEU2a9jXt7E/nLuQyd37GkA8asAcWHbU1hJRZJ4mQA7vCcewKV35EgykqZNgcsY70IaNld0PKzkFn592BW/poPXsXQePgaTGls5vnOvAzaMi8Dze95fH4pFQHFAhWLDOzabDCChnwA34p8gp6cR3eQtHYS4ndewjOthaAJy2NTImDO7e24JbK4U9XoidLLR8LP3xYWuDJuEHH2YuEyri9BcwcjoFxeOmqN1fGAL/MsBC3FFU1lFoYdmDWl5uOKEats2SKg8+zVYvrqf8PxyczjvGVu8Ur4eNxkfFLTpllXZEw2FSUCRIAIEIHCSoBEQCeb+TjmxtqLubFqfrU+w75pb1lIVpGFlLgU3kLGxRP+AZ665cUinDdzd13P3F0tMDEvosgUASEWPywferiuWT74mBtANoun2IfFU+StJ17o+RVzaTYf5w9iRhYORmI2kup2svVn0N0H/+KnM//iYsRVXIjUZpTmktH0wZrxzcyKqwU19PwVAQPQae5ShOrHujQYfGEQAe9h+zgmEmuN16QsgFItMW/uBxKyX5sWAblmOBc930XrULZ+3iHWWPNiSzVVo+mosqKDniWdM4iA3MiYUNF6OipMbQsPc+fLqHBc67IKTwXhQlVvGMp/2QveuTG+1Mg6uxZ3RunFJlOxQ/wZ5lotZQ61Zc7PwJV+e/h4phVDUenbQUxmfX5/+SECQizaabMJi5GKPwKq6mHMN6NgNgQtiYCmF+STRKRdOIqMrKYIbBZsVGBXn5+Lm/1ZPE7hfjKWVMNQBKyC9O2DcXfZGUFA1LfizWcRUCyUMhqqBhNQaXlX4/uIzv5hTthX4+HYFnhwhP+44jHlB2Z1rGclKVMEdKa9WndRZePe/tkYtvWaYN3JsnxXqIbGDRqi7ivm4lg/v3sljYwIEAEiQATynwCJgPnP3KoWI1YNxPhjfFKMgNbTsLWP8aQYkhsRv/S7BeLFOmVYiGvzv4Sb53E7lS9jmN3W0UVA3f75VqyP6n4WBvwkGheuxgsxGM0fpOwvMEme2fwpKF4/XItsDTXpMRQj21Qw44aYP10z1Yr1c5SFmAvH8eNvZxDx3z3k5o7JbZBP+sLLzCQC5s2DfrxQCetAqTVS1iPmDnwc8YsWIE3rWmfJZS3rGG63HIZ0zlLFncXI+4HFyDPw5nMcEVCfnjrpOtL2r0Lc6t+QLbhBGxcyda98tKwD7m4V4iZyf3L1hFvNV1HUNwVqJu6rBbe/IsEhcImNYWkm2M+S1Y/B1DKrnc9bI+409znKBcVHH0XVjyQEZ5SwRBy1iEOIgMcXot2KCOnhNkgEtHI5qZEc1gb39wvWtVUGocrOUBZ0JO+nIwJ2nYuS0YuQcCqBd/81Gl+vAEVAVV0EHNiM0sbDG2oGJc4kzMVPrc3ip+r/dAS7BpNR5avOhu8HckRAJ9+rOT6Zdw5j9uxtOJuSF2vRuEu/lUuSLicCRIAIEAEiYIQAiYBOtizEAoYtXhh0LAsVsDDsg6OLgGL3KAUDtpDRzXqBSUmfCvAafRGQO8f4v46R00PRvJQ5t/KC67PyOWLB8899g5mrDosyAFsaB4mAeYQScHTtFvwunI8tkdP83f81DOrXBEGSChsrlMjEp45MfBLyi5u0QBMf3t1RfMJPqPqBsZOv44qA2tHnXFqEa59tFayRpLjdqpG6liUiWCtyZdRDWSTwXQRN8kfiEFYv9zd2kK/NDvKcK6SkX9QqRHYOh8Yr1SDOoqQanK6QQ4iAliwF9amSCGj9OtNxHTZ0mxeLgOLGilTojNIrx8E/WN9FvgBFQCli/7ExuDzqEC80GyufxWKPvsdijyaxv5v8uML+JlkEfA72apZA7MCS+Vh5LlH4WMivBFu801u/gKkGIkAEiAARKAwESAR0slm2tQio41rrWhwlissTboLaTMDyLuVEFB1dBBS7XbrAzdMD7pJPstww62Dw+sFoZmLdKBeYnGwh6nSXuZxHReLwznXYrH2pLc5cu5eORauSjjcupXOkm42TiZ0+FVDnlfpoUtkXJSu8BPZ/wu8MFn3xDS5p/otEwAJfAanf4EbLuXiiOaWGwHfbzyinlzA35+xU/DfwB/5AVrkXyi/tYiLMwi0k9P0Cj+K5gsEosWQ9SlXhR1jEKxDFSzhGjDtxrL8izK25FnNrtrTNqe8dQdzicKT9+4AF/X+E/3P3hUuZevDqPgjB71VH0Z+H4NKU4xqLJdeu21BzjOVM7jwZsSsgMxb+bB9qDCpf4MvC3h0gEdDehBXUrzQmoKymxKKd4X4jtpzjq7Xkuu/gIqBOIhGWSOkkS6SUy0vXMtKtx1aU62rC9eLmWkQN/563NA58HyHr+gleKS5wDQiGmxDWwOn3avUNrB89C9/GaD6nwCPkdfQe+BHerOwPb8d4fMha7VSYCBABIkAEnJMAiYBONm9id2BbfDVUH56FDmuv8hQkxRi0BMzRRcAbWD1gGvZxX6Xhhw6zlmNgNUtjkv53pQKT9BYcuWQ2IjeNxYif4zRWAaoan+CbGa3g7WBdVjRH6Ycwqu8WXNYISR6o/b+JmPm+KZdnJfH9lFzjYGAdtjupeNDrTTzkVVkWjyqCxaMSdzYG0R+9i6Sb1g2g6Mff4IWReuqidVUqv5qJmle0oqYUax4JLeWJFy4sYcrfLGGKhIu4ImIRVlUfpQ5vRPDz7QmsAeMQIiC5A+suUgcQAXUS+qhKwWv6VlRoYzzGoKbzqdtx/e0FQuZzJQl5JN6n2mJy9w6dzMl6/YthMUc7sJij2x4MKAAAIABJREFUMrugW1wspDr/Xh3N4nqHsrjemnckC9m6rcJGFxMBIkAEiAARMEOAREAnWx7yE4NYGCAL7v7+wjP8S5rExCDma3R0ETABX48aDhYCS/OzdfIORQKTk61Bs91V/4Xpvb/Enxq/P2PZowt+sErmSJwh2rK4qUTQU3JNwbMsmB7cQ9K3p3nXUpRA8Zat4WNBVBK74BmKgGIXX+UjsqcI+PTyL0i++ojvXJlGCG4str420mfJrnUSx5t1GLfeGo0MLqSfih30T65CoMSElmKrRC5mWE0WM8ySVaLEXjl0MYcQAcWJQdwaYsq2IWhsjhq5AxuhI9pvvGqiZJs6LM+yuZ/Ycq86/PbtQpmQvPI534Xi8uwz/D8wK90XmZWu2Z+t72VLd42O6Mhio/7BYqOau9fN9U/HNdpSw6b+LhYBHX+vNj9K8fuxN1pNWo3hLynlQtcRASJABIgAEVBOgERA5ewK5kpxplq3BpiwcRiamnMhSD+H9St+h0bzMhZfS83Eh57h+Ftj4eTDXkqWsZcSeS7BuiDsLwLqCKHGMiJamBnx4czWX2KVCEwFs5Ds1Wo69k4cgPDrXP0uaPj5ZoSZ8p22Vxcs1KtkjuQd6JUIeuJYlVJdiAsIYIE3ewl33+2BVMEl12fTQZQ365l6A/fe/xAp9/k1aWjFlorUXw7hCZ9vycIvDumr1uGJRo/zRfFeg+EVzF/iUrMVStW2j4mbjnAgJR6fyHUXZXuj4vdDrbDIZTED53fE3V0x/Djbh+OFqQ2lCXli8RBVUHLPHpStYInx8/F3eXuGMGbx891C/FnNFRZj/on3FQmiA4mARhYfSxjUhCUM4gRwsEQZR1iiDHO3udiSzl3fPZZVIRbGSnRE2aNhMBc14+n2T3FtyQVNv0wl3rDtHSMW2lyY5fRpZjlt+iVT3D+DWKGpl5Bw+KpO3DuTfY09jKRNLEMyV6BEQ5Qc1BL8m6j4Q4/j79Xm50L8blATQ7ZPRFtyAbbt8qXaiAARIAJEQBIBEgElYXKkQv9heehMHEjRHMeYJdsyLGmfG4zMoKNpP09Ht03XeNcDJph9P6mZXqyrbJxY0B+zz/IOG6qgNli8uAdqmH0xScG503Go06iGkQyw9hcBdQ4+SrKHxuxG6LAfcE8zYg+8MnA+ZrYwzZArpb7+D/7xfQmvWUh2oURgkre6spEWfRVnL6fC96WGeDlYojmOvEasKm1/BlZ1D0r6Jz7QF3v1C+we/ZqJmHEsWyI7SPddfRGPNd2UKuiJ7xsXtibXszVpjRgvZuT4a0bejKpZso9GLNkHn1XRpdNG1JpY33QV4qQUMLTMkde2bRKDqJMuIPXoNRaCoTX8apWwLKiJhQOLLrVqJIxqithjGtXCSuEgEymrWNKQDVf5wP/mAvsbAZm+qjNub+D9rIvUG4dq67pZsKKSNxuOXNoxREDgz8V9MP208Hy34H6oEyNYwbNVnR6Di/9cQYrPi3i9bpDjZYhX5A6citi+byEhgttvXOA+/BCqdTeVLlc3Bp7xeJziPcQLXgt/Q6Xmpl647rJQBZ1YqAKubSlJfvTuiCeJSDl9lLkS14bfG7Vy4+pZum/E9635TODi/rEeDv+dsVH4IcTmFo+22astsZL1d7FlrhSRX1blVJgIEAEiQASIgHQCJAJKZ+UwJdOYyNCTiQya13pVEDrNmIfQaoaCgfr+AYyfuB2Xn3AFPdBk1CpMbGhEWIjZi4Ej9uCO5pTHStbojqVT2qKcsffSzCjsnjULGyIfw6NSZ8ye2UlPMMwHEVDnRUqJ9WI2OxgNYgcjXqbhGLYaOxnD6xsTArmMsBswbuFxxDDLnyZDZ2JiY9OCoRKBSc7CurF1JIbu52PuSRUw5dRvi7L2ZmBtH5X0Tyymm77nsnDr4HJM3hSBJOFeki4CMqOeOZ9i/nle2LKlhaozrBm5c5rz60hcHXeEvw9U5eGzZhfK13c3rCbrFh4M+gQPI/jswNYLUdYfLJ8yK70bLMEGv0Rc4NJ6EV6YZclF9i7uf9gByXeELavRZFRa3BkeRr4BZP4xFXfYRw61pgF/lFh7BBXMaKRG2Wc9Qvo/3yF++kpkxPMB7AEvZhX0A7MKMiWA6NUkzgrK9WP1QVR41Uqzl/iTWLHhLyRomvLDm5/1xluBcldP/pR3FBEQOtaFLghpPQEr+xh+wEv+czk+X3Ymb++SKwLe2oE+LKt2jPY9gn10XMc+OjpUbihFIiCQwzLgXtVmwGX7je+GPShXx3AtZ/4xCXeG/Mhn0DYj2mUy674bzLqPS7LDsu6gzOaZ8DO4rdRI39wXUV9e4PcKv84od2gyewuR+Ev9Gbc6TEBGBl++SIl3EXxwNgKkfDfMYtaPLZn1o+ZaFxRtvxwVp76hJ+oyC+FFnXFvx11+HO4sTMBPLEyAQg1QenZgieOH9Xu11JYkl5Nr6Wum4ot7FuFbjccFm9tq7TCts4PEo5UMgwoSASJABIhAQRIgEbAg6StuO4VZM43Bkn+1IpYnKjR+D6Hvv4YQ7hycEoVDB7/Fj39GI03iC7l+5lOVWyAatv8YXZpXYEctvs6Tf/6KfYcuI0GTvo1JUJW6Yt68DqiqM458EAHxgMX1G8fi+vGCCVSeqN6iPTo2egm13OPwd1QqEm9dQERiJQyZ+AEqGuPMMrSFj5iBvXFCHcyuy7d6E/To0hKvBHMQMxETeQaHvz+M4/czBLHBF81HzMXYhl4mZ06JwCR9GVzCkj5zcUjsthjUDqu//Nj4GKVXbNOS9mUgtasJOLp2C35PNCyfcPM8bqfy/+5bsT6qGyQrNCIuqJlbXd+lOKkR1Pk1V6F+U7xTP1iTwfBJzL84euoiq1crmGjblWoJyKxNWXzObiw+p3BXw9X/ZXTp1BQNmEVNZuQ1PEiOxcWIqyj+ziwMfUMqB+dYM1JHk1cukVkDdmTWgLy4p8mw2ewz+Hd9B17lPdh/P8TjX/chedP3yHyk3SeYFeBuFp/LKndUaw+WuklK+L5LC/afc2kRrn22VRD3uEN9HXj3+gw+79QAd65/dpdZF+5agZTjMfyhnFumkmPw3UB0z75I1Xj8qpGTmpFbB1+TF4oP34LK3StbtloU2n66szeuLzjP11MxFJW+HcRqsfKnc4iWfm9Z2arZy8WHcXHBJ/ev4GI8b4FXLPAF1C3L7RS6v5odRqJbLdG/yRUJLLoDc3VnI2LVUIw/Jmx6TNTxLvsa3mvzEurUCNTsLZdOH8a+S4m6bpsyRUBx0jJ+REH4cOEi9HGkRNAKRUBAb79R+cCtZTe233SARyk21IRIJO1aiUeHb+KZ8M6lYvH+qrB4f0Y+TbAL2D7yfncWokDYmzwrwbvbF/DtqL2X/0DKlo1IPaO9ly1ZDBouUR03XeHPhvFQTS/tTMbq5vQ/hI8VbL8JbAHf0b3gVyOA7TV/IGnVCqRdSRX2CZkfCIw1WxgsAeXe32Z2HvF7FhSExbHnnkh1EwEiQASIgOMTIBHQ8efIeA/V0dg7azrWXREEKpPjcIFfo0FYMeI1C1/ks3Fv/zyM3H41Vzg0jYYdImp1w6KJxqwF80ME5Nxzt2HA5IO5VgfG+2oh5kryBSwPW4oDMfrCjZHaXEPQdvQEDDFqLZhX3r4CmHMIOvZlIPWG1V2HUq/iyxkXF9TXd2Dw1J9wTxDBjddZFOXe/gBVL+zEbw/5EnX7bcLcllJce/XEfROdDmg9DVv76ErvpsfnHGtG3vwIpbMuIbr3ACRFaoVAM7V41oTfyi0oY8R6R17bBScCcv3M/HUMbk84hOxcS1NTvXeB69tzUWleS4kumaYD7nOH/4ClcxBc3bicYbwHunHFio8+iqofKTURErXggCKgzmFc3mJibv/bmNu/qfG9iOG7xqKVuToliYCsAu59YXoYwpkFv+kf27tCfHAvRti4SATURSVjvylSoTfK7RgKH3NWd4mnENVnCB5phUCTEyNfgOeqslYE5D4GPP5uJO7MPZ4rbJp65rn13IhqQ+tI/kBgtB4SAWXtHiQCysJFhYkAESACRECPAImATr0kmPvhsa1Ysf0krhpYILnAjVkfdO7VDx83CDAZv0x/+OqEq/h+4wbsiHiAJwZih5Q680cE5Pqtvn8Us+duw5n4rNyv1bnjUbmhZLmm+GJqbzQ2a34iMPz6FCJTjNTjWgKVXuuEUf1borKEM7C9BbAbO8Zg2N4YwWJDWjzD/F7iYrfWwHdnYHOvSvndBdae7UVAzZpL+Acbl63DvmuP9IKdi+8NX/w2sw+z1OWtPIo1GobvRzSQyIDF29y0DIsOXUeKEbHRxb006n40CLPaSWfqDGtGIhwjxTKR9uMCxH75I54mPtWzXmPFXf1Q7O0BKD2pK7wNDbEUNGutCMi5Fk7Af2N+Fg7WzNXu482oPlL6ATon9m/Ezp+B5D/uIMfIHq0q8yp8Rk5DSLNgGYdy0bhcPeHiVxZurzeH7wfdpcUs1COp467tx5If/MiSH0hxQ7Q0IyQC6hKSKgJqrsrC5b2LMG93njW/tjJXn2po338weqetRwcWakTzkykC4tYuhE7al/uRxOM5cgfOg872m93T8SD8MJ4mG348LFKsLDxYzOaQT+tJE9+zYpG4bhoStp+F+qnWK0HbWlG4VGsJv7ApMgV44Xrm0nunzUikCZbQRcr2RLldI80Lk0buP/W1XYietBLpt7RWf9pCLlCVYe7eYZMQUk9iiABz93dhEwG9m2HO+lDUs7Tnmfg7iYAKwdFlRIAIEAEioCFAIuBzshAyU+KREhfFXGGfonSN6ijn74dSXlKsj0wByGL1pSAl9houxxVDpboVUMrT2jrtA5sbe2wU109oxh7i6Qn/AE/Jwqe2V+r0RCRmJOLWhbvIDKqOWsE+8A3ykfYyb5+hGa01M+UurkSmMrecGqjoa4uTtW07L87eXKL5OOwcZDZ1q20bz6/aMlmw+NQ4zVpBhZdQrYyN7w11BhKSonGd1Z/sUx6vVPSFu08gfCUI0cYQOPqascW05TyKRWZ6HB7/wRIhla0Hr0osMUGQhKQbtmhcZh1cXx/9fYUlBmmAEor7mInMmESomRtwxn13FpKLxXkrWQbuNhE7ZQ4ov4pf34yeEw8zZ2/uVxWhG6ahk9U+xvnVeUdph3u2x+IWcwNO8WHPuQrBCNY+R8SiopJQE2xfvMPqTfLl6nW8Z6ctZ0Cz38TfQXrEPRbD9XV4lPOHh5/CDZpZ3WXFxePpbRvfyyy255Or55CBWihRM1hyYhBjnPLGmwTXenVRPDAQxUtYGePTlhPiDHUdX4h2KyL4j9YsSc+uWW0VZm3PxoFpvbCcPUK433P7nuUMc0p9JAJEgAg4KQESAZ104qjbRMBhCYitdeRakzjsoKhjRIAIFDQB9eFZ6LD2Kt8N2ltsPh3iZCaq+gPx03jJwUdt3heqkAg8bwTEcTPLdVqA8I9LKxziDaweMA37krjLXVhYgfUsrIA1H/0VdoMuIwJEgAgQAaclQCKg004ddZwIOCoBceIWM1mpHbX71C8iQAQckEA2Tizoj9ln+WQb1h2iHXB4duwSF8909ulXMaFnVdMW8moWP3QwSzyVwgsLtXutxMJ3yczSjtNCVRcmAslHMe6LDbiQxQatqo6B66agg9LbK2Y3QlkG+HscP7cGmLBxGJqSUWZhWk00ViJABIiA1QRIBLQaIVVABIiAPgGdxC3FK+HjcZPxSU3Hc12mmSMCRMBJCKQfwqi+W3CZ86Ur3hBT1g1BYzr4Wpw8dcJRhI3agL+fcEnC+mDBoGYI0fdazYzC7lmzsEGbOIT4WuRKBYiAVALq9MvYOGkh9mqS0LkgpP00rO8pPa6vfjuX1gzG6CNctm8XVOoyF6u6KLUolDoCKkcEiAARIALPGwESAZ+3GaXxEAEHIZD820L0XxORm23atdwH+HLRB6joIP2jbhABIuA8BO7tmYiBO6NYQh7HTIjksCSTj2PSsHAmAgo95JJd1aiNevVqoAxicTHiKi5ERokSEXmg4eeLEdZMqZmSw5KgjhGBfCfw39YRGLU/Xkgkxgnxg7BixGsoqbQnj89iztAVOJ76DKqgNli8uAdq0McQpTTpOiJABIhAoSVAImChnXoaOBGwPwH1/T+w+quvceRGCrLqhOLApGb2b5RaIAJE4LkkkBl7FqfuV0IzGRnvn0sQMgfFZTVfPetLHNBYIpn5ufqj+RdhGNvYV2YLVJwIEAFjBNL2T0PXrbfh5lsZ7UJZBm5b7F0scdj1U/8gq1FT1Faai4amiwgQASJABAo1ARIBC/X00+CJABEgAkSACBCB559ANhIuH8PePb/g8LV4pGc9E4bsAjfPQNR5swP6dGuKyiQqPP9LgUZIBIgAESACRIAIFGoCJAIW6umnwRMBIkAEiAARIAJEgAgQASJABIgAESACRIAIFAYCJAIWhlmmMRIBIkAEiAARIAJEgAgQASJABIgAESACRIAIFGoCJAIW6umnwRMBIkAEiAARIAJEgAgQASJABIgAESACRIAIFAYCJAIWhlmmMRIBIkAEiAARIAJEgAgQASJABIgAESACRIAIFGoCJAIW6umnwRMBIkAEiAARIAJEgAgQASJABIgAESACRIAIFAYCJAIWhlmmMRIBIkAEiAARIAJEgAgQASJABIgAESACRIAIFGoCJAIW6umnwRMBIkAEiAARIAJEgAgQASJABIgAESACRIAIFAYCJAIWhlmmMRIBIkAEiAARIAJEgAgQASJABIgAESACRIAIFGoCJAIW6umnwRMBIkAEiAARIAJEgAgQASJABIgAESACRIAIFAYCJAIWhlmmMRIBIkAEiAARIAJEgAgQASJABIgAESACRIAIFGoCJAIW6umnwRMBIkAEiAARIAJEgAgQASJABIgAESACRIAIFAYCJAIWhlmmMRIBIkAEiAARIAJEgAgQASJABIgAESACRIAIFGoCJAIW6umnwRMBIkAEiAARIAJEgAgQASJABIgAESACRIAIFAYCJAIWhlmmMRIBIkAEiAARIAJEgAgQASJABIgAESACRIAIFGoCJAIW6umnwRMBIkAEiAARIAJEgAgQASJABIgAESACRIAIFAYCJAIWhlmmMRIBIkAEiAARIAJEgAgQASJABIgAESACRIAIFGoCJAIW6umnwTsNgaxHeHL1HFKvJyLn8WOoPDygKlsPJepWg3txpxkFdZQIEAEiQASIABEgAkSACBABIkAEiAARKCACJAIWEHhqlghIIpAVi8QvxyNu93k8yzZyhaoYijYZiTKzusKbxEBJSKkQESACRIAIEAEiQASIABEgAkSACBCBwkiARMDCOOs0ZucgkHUJ0b0HICky3WJ/i5RohsDdyxHob7EoFSACRIAIEAEiQASIABEgAkSACBABIkAECiEBEgEL4aTTkJ2BgBrJYW1wf3+i0FkvFOs0DoED34GvnztyHt1Byt7FiFt5HNk5fJEiVQah4s5QeDnD8KiPRIAIEAEiQASIABEgAkSACBABIkAEiEC+EiARMF9xU2NEQCKB1G9wo+VcPNEIfC5wH34I1bobmvnlXJqLa72+gVpTrTs8555A5XeKSmyEihEBIkAEiAARIAJEgAgQASJABIgAESAChYUAiYCFZaZpnBIJZCEl8gJORQHVX6+Pal6uEq+zcbGfh+DSlOP4P65av84od2gyfI02oUbCqKaIPZap+avq7aWoPa+5jTtD1REBIkAEiAARIAJEgAgQASJABIgAESACzk6AREBnn0F79T8zFbGpT3Nrd/H0QylrBDGb1ZeNtIdJyHjGuubiCf8AT+TZvTEBLy4FGjmsmC+Cfd1k0knHb3NGYP75x/x1qiB0mjEPodXyXwh8tOhdRO2I4fvRaDpeXNHB5FhyvgvF5dln+L/XGY3qm7qjmMyRU3EiQASIABEgAkSACBABIkAEiAARIAJE4PkmQCKgs83vrW34dNxBxCvod+C7M7C5VyUzV2Yj4dxeLN10ABHxWRBCzQnlXeAW+AI69+qHjxsEiIQ3cx2xtr7jmNQ1HH9zTQS0wdIJ/tgStgv/pPLOr9zP1f91jJk9CHXurMf4RccRlcWpg7p/a1pSIqz0Axj+2Xb8Jyquqj8QP41/Q2IFtismRwTEvkG4OP0PvnEWF7AKiwvoYbuuUE1EgAgQASJABIgAESACRIAIEAEiQASIwHNAgERAZ5tEu4mAKTixeBLmnk7RE//0AbnAu/6nWDnqLZQyG3rOFvWJREDvIIRkxyHmieGEqYJCEJwQgxhd1VJTUFWtO7bNagtJOqADiYA5TNi7woQ9jTuwBWFPLBiSO7Cz3dDUXyJABIgAESACRIAIEAEiQASIABEgAvlDgETA/OFsu1biT2LFhr+QYLHGZ4i79i+i0oWCZl1bsxG5aSxG/BwnCIBF4Vu9CTq3b4omFX2RdOcMTv5yGPsuJUJrZ+fxUijWTWpmQlyzVX0iEZAT9HxromO711CmOJD49/fYeV4kWLr6o1HH9mjA1L4nt3/HjiO3wTv1lkPPFXPwv0CLwFgB5g48fyQWnsvgORSgOzBS9+Fmuyl4rPFtDoHPph9Qvo4R1TXrGG63HIb0DK6cF7yXnkTFJlLGSmWIABEgAkSACBABIkAEiAARIAJEgAgQgcJEgETA53S2k3+bh76rLwpCmAdeGTgfM1uYSC1xZjm6LTyTV7bfbExtqe/yy1x7T6zCsJVnkKRRyIqxOpexOr0MCKptVp9YBKyEz9bMQJdck75LWNJnLg6lcc27oHavlVj4rrYv6dg3eTBWR/KS5SsDt7F+Sp1oLubgLVy8CVSrXdm6OIhSmzRRLn1tV9xZc423BvSsiZJLN6Jsfffc0jmxx3Fv8Eg8iuLdo1UsdmAVFjswr4SVHaDLiQARIAJEgAgQASJABIgAESACRIAIEIHnhgCJgM/NVOYNRH19GwZMPii4x7og5N3J+KpXVRNx/B5gy/DR2BHNXx/YehrW9TFVFrixdSSG7hcsBn1bYEF4H9TRYWjL+sQi4IsYvmssWuW2lYCvRw3H1rvcPwSg09ylCK2c15Ebm4bhi58fav5BngjoSAsiEUmz+iFm7y1eCGS/Ih6+UGkMAtXISc3I/XdVjUEouzEUPnJzoTjScKkvRIAIEAEiQASIABEgAkSACBABIkAEiIDdCJAIaDe0BVRxMhPOhrFkGkLsPPNuu6yP4hiDquoYuG4KOhga9+UNRv0Xpvf+En9mcf/kg7ZhKzGkpmisNq3PnAgIHJrZA0v+5dp+XkVAXuxL39gbd1ZeyhX89FeWa+sVqDKrCUj/K6B7jpolAkSACBABIkAEiAARIAJEgAgQASLgBARIBHSCSZLcRfUNhI+Ygb1xQuS+4sx6bimznjOTFSNt/zR03XqDb4Il0djFkmh4m20wm4lvfZj4xrcR0n4O1vcsl3uFbesr5CJgViwSwj5D3C8xeQKgqydcPJkpYGYanj3VRmh0gUutPghZMwi+LF4i/YgAESACRIAIEAEiQASIABEgAkSACBABIqBPgETA52ZNpDBxbgwT5/h0GFKTWkSsGojxxzSB9RD47gxs7lXJIpE7zCV4IHMJ1jRTfyB+Gv9G7jW2ra8wi4CJiP+8I+JO85ldigQ0Q8DimQisVQIqgbb63hHEjpuKlEihTNmeKLdrJLkEW1zBVIAIEAEiQASIABEgAkSACBABIkAEiEDhI0Ai4HMx5/rZeM0nAhEPOc+lVroICJZ0pC1LOqL5sSzBB1iWYO3PtvUVXhHw6b5BuDH9Dz5LsefbCD64CKWMWvklIm5AO8Sf06QRhkv7cLwwtWGuUPhcLG8aBBEgAkSACBABIkAEiAARIAJEgAgQASJgNQESAa1GWPAV6GYCtpQIRLe//9/evYdZWZZ7AH72qCgIgSZgEioqmSYoSSTZ5oJKtpiHuNyYB1ASG4MUZ1QUBBEFJJQARUExFASjtLaKV57YiRdmmFLiYafmIZENiqKQoCKD7L3WDBnHmcWsYbH4vnv9ybzv+73P/bz887u+Q92Gdhu+p68uQsW0hoBLYvEPT4gPMl8ozn75uP6Ax+KQHzbe+kFbODFeOXVyVL6mseRb0fwPE6OZFwTu+P+YdkCAAAECBAgQIECAAAECBIpIQAhYRM2o1VaWPxYDL7w9nqtMgCJq/BDIJhep28d3I+p2vbSGgLPi9fZDo+rB7q/E3rPujhb7VXc6Xoy3TugZ/3g3O6ZJfGHS43HAN2p1mkwiQIAAAQIECBAgQIAAAQIEEiogBNyZG7vJh0BKmh8fY8f2jEMz343I9bf0nkHR+55FVcMPPzdmDftO1DR93tg+cc1Tn1ZO2fTDIHW7nhAwInNn3/zMnX3VNvTlWHTi6bHinapBDYYuiINPzvUEGEeAAAECBAgQIECAAAECBAikQUAIuNN2eZMPgeTwJeAtlvrGjDhn4MNReRNZvfZxxR1l8e/VpYAVf4prfjQh5lXeedgoug6ZFOVtN1i5TtcTAkbsH01+PStaHlzdQXUn4E7739jGCRAgQIAAAQIECBAgQIBAgQSEgAWCrtvLbPIhkJLm0X346ChtvWstLvN23Fk+IGYurppa0xeClz8wLHpOf63qgxVNusT1k/vEERtdtS7X2xEh4JrM13afiycXZh7E/Va7aN2wNqa1aMNGUzZ8J2Ammz13Vhzab/+tLrrumavi5b73x2fZESXtounsO2Lfal4hmO/uzCdAgAABAgQIECBAgAABAgR2PgEh4M7Xs9j4QyC5fwl4a6WunDsmet+0oOoddJlAsevlV0Z5uyabDV/90rT46dWzY0llArhLfLXXDTHupM3H1d16hQ4BV8WcURfHdc9WvY0va1H7cDW/g7XqttPizVv/Fv9XuY/M3YC3/zZaHrGFWzQ/eTbeOuO8+Mf/VkaAUdL5+jhszHE1fx34r/fHVbNeW7/jTOQoAAAXlUlEQVTJQ+I/B54SbfLbstkECBAgQIAAAQIECBAgQIBAEQsIAYu4OVvc2hszo88Vv1sfxEXsdmCXOO97B2QiuVx+zeKorm2jxWZDN3m0OPNWwKbtvx8/OaVTHJTN+FYvjSfumxH3zFscKysDwJo+QFJX6xU4BFz1UJSfe1e8vIFPSbu+8btBx+aCW7dj1rwYi047J1asD/eipHHUO+70+OJpJ0eDpplLfbwoVs3+dbw/bU6sXbv+0ntm3h/4X5n3B34xh63MGR3dJr2wfmCbKL/78uiawzRDCBAgQIAAAQIECBAgQIAAgZ1TQAi4s/Vto/BmWzdfTdhTsSwenzAsrn9qRdWjvlv97RKNDj89fj64W7Ss9t2BdbFeikPArP/7T8bC0rL4cGFFzY3e87DY++Y7o8WW7hbc0mwhYM2mRhAgQIAAAQIECBAgQIAAgQQJCAF3tmZurxCw0mFtvDf/3hg/9aFY8O6azcLAXRu3juPO6h2lnQ+IPXJyy3e9AoeAkXkc+LpLYsz8j6pq34GPA3/Ou+adWD7zxnhvxuz4dPnmYeC/7d40dj/hotj34hOjUf2cmlI1SAi4DViGEiBAgAABAgQIECBAgACBnV9ACLjz93C7VFCx6v14f/Eb8eeF/4i9DmgbBzVvEvs2qVfra9X1erXeSI0T18bKZW/EC69HtP7aQdF0h3wYZMubXPfhO7H63Tdj1YJFEV8+Khq2ah57NP9Cze//28JyFbNHxsm3vVT1l0adYtSU0jiqRhsDCBAgQIAAAQIECBAgQIAAgZ1VQAi4s3bOvgnkIfDKlP5R9sgHlSuUtC2N+4Z0yrwJ0o8AAQIECBAgQIAAAQIECBBIqoAQMKmdVReBrQq8HXeWD4iZi7MDdo+O5bfG0I678iJAgAABAgQIECBAgAABAgQSLCAETHBzlUZgiwIvTYkzrpoTKzJ/LNn/1Jg8pvsWvhjNjgABAgQIECBAgAABAgQIEEiSgBAwSd1UC4EaBT6JJ8dfEtf+8cNYVwwfPqlxvwYQIECAAAECBAgQIECAAAECdSEgBKwLRWsQ2KkEMh8/eX1ePL3mm/Hdw2r/sZedqmSbJUCAAAECBAgQIECAAAECKRcQAqb8ACifAAECBAgQIECAAAECBAgQIEAg+QJCwOT3WIUECBAgQIAAAQIECBAgQIAAAQIpFxACpvwAKJ8AAQIECBAgQIAAAQIECBAgQCD5AkLA5PdYhQQIECBAgAABAgQIECBAgAABAikXEAKm/AAonwABAgQIECBAgAABAgQIECBAIPkCQsDk91iFBAgQIECAAAECBAgQIECAAAECKRcQAqb8ACifAAECBAgQIECAAAECBAgQIEAg+QJCwOT3WIUECBAgQIAAAQIECBAgQIAAAQIpFxACpvwAKJ8AAQIECBAgQIAAAQIECBAgQCD5AkLA5PdYhQQIECBAgAABAgQIECBAgAABAikXEAKm/AAonwABAgQIECBAgAABAgQIECBAIPkCQsDk91iFBAgQIECAAAECBAgQIECAAAECKRcQAqb8ACifAAECBAgQIECAAAECBAgQIEAg+QJCwOT3WIUECBAgQIAAAQIECBAgQIAAAQIpFxACFvIAVHwUKz/bMxrtUciLuhYBAgQIECBAgAABAgQIECBAgEDaBYSA1ZyApU8/FE+saBQHte0QX9+3Xt5npWLe+Dj9tg/ilAFD4uzD8l8v7w1ZgAABAgQIECBAgAABAgQIECBAIBUCQsBq2jxn1Dlx3bOfZUbsEo0OPi4uu6xntN+r9ufiLzedH4PnfhRR0iS+fdGIGNyxSe0XM5MAAQIECBAgQIAAAQIECBAgQIBAjgJCwK1CrY7Xn/rv+P2js2PWi+9HNgqM+m2ifPzl0bW2QWDF4rj3mqtj8isfZ4LA5tF9+Ogobb1rjq0yjAABAgQIECBAgAABAgQIECBAgEDtBISAObgtnzM6zpv0QmSiu2jQrm9MHXRsNMph3haHVLwWky4aFrOWZUPFo+Kymy+NLg1ru5h5BAgQIECAAAECBAgQIECAAAECBGoWEALWbJQZ8XbcWT4gZi7ODm4RZ4wfHWfvl9PELeeAz0+Os0fMjRV1ESrWfhtmEiBAgAABAgQIECBAgAABAgQIpERACJhjo9+cfkn0fWBp5ehWPcbFxB5Nc5y5pWFr44nrz49rn/k088fG0XXIDVHe1mPBeYCaSoAAAQIECBAgQIAAAQIECBAgUI2AEDDX45F5JLhb5pHgyl/b0nhoSKdcZ2553JJ7orTs/liU+WvJ/qfG5DHdM/cY+hEgQIAAAQIECBAgQIAAAQIECBCoewEhYK6mG4aAzb8fkyacEQfmOneL41bFrCt/GpNeyX5ypHF0u/rm6H9YXgtmJq+JFa88F08uzNyt2OHIOLxJvXwXNJ8AAQIECBAgQIAAAQIECBAgQCABAkLAXJu4YQi4z/ExYWLPOCTXuVsZV5FZ8weZuwvXZf6++zFlcd/F7fNYcW3Mu+GnMeLJjyrXi5I945h+P4+rOvnqSB6ophIgQIAAAQIECBAgQIAAAQIEEiEgBMy1jdshBIyKuTGk1+T4cza1q9chhs7oHx1z3c9m4zJrnZZZa8N/b31W3D2yW+2/ZFzrvZhIgAABAgQIECBAgAABAgQIECBQTAJCwFy7sT1CwHgvfnlpeUx/K7uJRpkPhEzKfCAk1w1tOk4IWFs58wgQIECAAAECBAgQIECAAAECSRcQAuba4ecnxw9HzI0Ps+Pr6HHg7FKvTOkfZY98ULmL/U4aFVN6tcx1R5uMWxsLbimLwY+t+Pxx4M4X3xyXd/DV4VqCmkaAAAECBAgQIECAAAECBAgQSIyAEDDXVr41M/pc+rtYkh2f96O7/7poxeyRcfJtL1X9w+Hnxqxh34ndct3TZuPWxsplb8QLr0e0/tpB0bShALDWlCYSIECAAAECBAgQIECAAAECBBIkIATMuZkvx42lI+KhFdkJjaLLoAlxWbs6CNlenRa9Bs+OZdll6/AOw5zLMpAAAQIECBAgQIAAAQIECBAgQCDxAkLAbWjx8geGRc/pr1U+blvSpEMMGNkvOjfNMwjc8A7DaBPld18eXbdhT4YSIECAAAECBAgQIECAAAECBAgQqElACFiT0EZ/XxHzJw6Pqx5fuv69e/Vi30OOjo7fODSO7vC9OPpL27TY+sEbftBDCFgbQXMIECBAgAABAgQIECBAgAABAgSqFxACbvMJWRvvzf9VXD3h4Xj9k39NPrrvjBjRZZsXy0zYMARsGb1uGhVnNqvNOuYQIECAAAECBAgQIECAAAECBAgQ2LKAEHBbT8by52LydRPj/tc/qrobcP2vbkLAfaL7z8ZH6UHbuinjCRAgQIAAAQIECBAgQIAAAQIECGxdQAi4Ladj+dwYesmUeGbVZ5lZu8Teh58Y/X7UNY4+oHHssS3rbDR2wzsBD4v+dw2ObrX/PHCtd2EiAQIECBAgQIAAAQIECBAgQIBAcgWEgDn3dm3MG9svrnnq48oZe3UeGNP6HRF553UVj8XAs26P5ypX9U7AnNthIAECBAgQIECAAAECBAgQIECAQM4CQsBcqSoyd+z1mhx/rnwG+JAovX1YdG+Y6+Rqxr0xI84Z+HC8mx3SqFOMmlIaR9XBspYgQIAAAQIECBAgQIAAAQIECBAg8E8BIWCuZ2HDsG7v42L8LefEobnOrW7c0zfGD8Y8HZ9mx+x/akwd0z2a18W61iBAgAABAgQIECBAgAABAgQIECCwXkAImOtRmDsmvn/TgqqPgexzfEyY2DNzP2D+v5UPDIvTpr9WudDux5TFfRe3z39RKxAgQIAAAQIECBAgQIAAAQIECBDYQEAImOtxmDM6uk16oWp0HYaA88b2ybxnsPI+wDjyx1PjZ8ftmuuONhu3dO4dMfGPH1T9+xe/Gf1+/G13FdZa00QCBAgQIECAAAECBAgQIECAQHIEhIC59nK7hIB/j8n9rox7l2U30TJ63TQqzmyW64Y2H/fa1LK48MHKxeo0qKz9jswkQIAAAQIECBAgQIAAAQIECBAoBgEhYK5d2B4h4Lv3Rt8LfhtvZvdQB+8DFALm2kzjCBAgQIAAAQIECBAgQIAAAQLpEhAC5trvDUPA1mfF3SO7RaNc525l3NJ7BkXvexZV/rVVj3ExsUfTvFYUAubFZzIBAgQIECBAgAABAgQIECBAILECQsAcW/vm9Eui7wNLK0d/ofPA+HW/I3KcubVhb8ed5QNi5uLM3+u1ifJbLo+uDfNbcqMQsA7uLMxvN2YTIECAAAECBAgQIECAAAECBAgUi4AQMKdOrIp7B/8kJr+aHbx7dCy/NYZ2rP0HPLKrVMwbHz3GzY/sJ0GanTA8pvVuldNOtj5obTw0rHfc+NeqEXWzZp5bMp0AAQIECBAgQIAAAQIECBAgQKAoBISAObSh4tVpcd7g2fFudmyTLnH95D6R332Ab8cvLx0Y09/6LKJ+hxj6i/7RcbccNlLtkPkxsuf4+MOa7KAWccb40XH2fvmuaT4BAgQIECBAgAABAgQIECBAgEASBISANXRx9Tuz49orZsQzqzKBXTSIDheMjas75ffc7uLMuwBLM+8CXFdH62VLWJl5Z2GvSS9U3lnYoF3fmDro2LzfWZiEA64GAgQIECBAgAABAgQIECBAgACBCCHgVk/B6nj02n5xw4I1mbAu+2sQB/e4LMb1OCTyuWmv4tUZ8ZMrH44lmUUbHFMWv7q4fV7rVW1/ScwcMDjuXFiRubMw837B8Zn3C+7leBMgQIAAAQIECBAgQIAAAQIECBCoEhACVnMSFkzsG4MeXx31v9Qmzi2/IE48sF5e52b1SzOi//CHY9HaTADY6tS4dkT3ODSfRHGj3ayN9+Y/Hv+zb+fo/OX83leYV5EmEyBAgAABAgQIECBAgAABAgQIFJ2AELCALfnn13vrPgAsYBEuRYAAAQIECBAgQIAAAQIECBAgsNMJCAEL2bIlj8SNj+4bvXofGZ7WLSS8axEgQIAAAQIECBAgQIAAAQIE0i0gBEx3/1VPgAABAgQIECBAgAABAgQIECCQAgEhYAqarEQCBAgQIECAAAECBAgQIECAAIF0CwgB091/1RMgQIAAAQIECBAgQIAAAQIECKRAQAiYgiYrkQABAgQIECBAgAABAgQIECBAIN0CQsB091/1BAgQIECAAAECBAgQIECAAAECKRAQAqagyUokQIAAAQIECBAgQIAAAQIECBBIt4AQMN39Vz0BAgQIECBAgAABAgQIECBAgEAKBISAKWiyEgkQIECAAAECBAgQIECAAAECBNItIARMd/9VT4AAAQIECBAgQIAAAQIECBAgkAIBIWAKmqxEAgQIECBAgAABAgQIECBAgACBdAsIAdPdf9UTIECAAAECBAgQIECAAAECBAikQEAImIImK5EAAQIECBAgQIAAAQIECBAgQCDdAkLAdPdf9QQIECBAgAABAgQIECBAgAABAikQ2IEh4Hsx74E/xQeND4h2HdrEfnukQFuJBAgQIECAAAECBAgQIECAAAECBHaAwA4MAZ+MoadPimfWZaou2TO+cny/GNb7yNhrByC4JAECBAgQIECAAAECBAgQIECAAIEkC+y4EPDjhfHk7CfiwYd/H395v6LSuEHb0vjFkE6CwCSfOLURIECAAAECBAgQIECAAAECBAgUXGDHhYCfl7oiHh1xWYx7/uNsDBgdLhgbV3dqWHAIFyRAgAABAgQIECBAgAABAgQIECCQVIEiCAEztEvuidKy+2NRVrnFKfGLcT2iRVLF1UWAAAECBAgQIECAAAECBAgQIECgwALFEQJm4r8pFw6K3yzNVt8yet00Ks5sVmAJlyNAgAABAgQIECBAgAABAgQIECCQUIEiCQEj80hwz8wjwVXKR/edESO6JFRcWQQIECBAgAABAgQIECBAgAABAgQKLFCUIeB+J42KKb1aFpjC5QgQIECAAAECBAgQIECAAAECBAgkU6AoQ8BmJwyPab1bJVNcVQQIECBAgAABAgQIECBAgAABAgQKLCAELDC4yxEgQIAAAQIECBAgQIAAAQIECBAotIAQsNDirkeAAAECBAgQIECAAAECBAgQIECgwAJFEwIumNg3Bj2+srJ8jwMX+BS4HAECBAgQIECAAAECBAgQIECAQKIFiiYEfHP6JdH3gaWV2LsfUxb3Xdw+0fCKI0CAAAECBAgQIECAAAECBAgQIFAogaIJAeOlKXHGVXNiRbbyRsfG8Fv6RvvdCsXgOgQIECBAgAABAgQIECBAgAABAgSSK1A8IWAm/rt38EUx+dXPMtq7xN7HlMb4C4+NpoLA5J4+lREgQIAAAQIECBAgQIAAAQIECBREoIhCwEy9y5+LcUPHxqNLs0FgREm9ZnFo+6/Htw5vGx27to0WBSFxEQIECBAgQIAAAQIECBAgQIAAAQLJEiiuEDBrW7Es/nTXDXHdg3+Pjz+3bhPld18eXZNlrxoCBAgQIECAAAECBAgQIECAAAECBREouhBw+bMzYtiE2fG3VVV3A1b9hIAFOQ0uQoAAAQIECBAgQIAAAQIECBAgkEiBogoBl88ZE+ffuiBWrstYlzSJtqecE327HRkHNqmXSHxFESBAgAABAgQIECBAgAABAgQIECiEQPGEgBXzY+R54+MPn2TLbhxdh9wQ5W13LYSBaxAgQIAAAQIECBAgQIAAAQIECBBItEDRhIAVc0bHDya9ENmbAKP1WXH3yG7RKNH0iiNAgAABAgQIECBAgAABAgQIECBQGIGiCQFfm1oWFz64rLLqff5jWEzvc0hhBFyFAAECBAgQIECAAAECBAgQIECAQMIFiiYEnDPqnLju2aqPgTQ7YXhM690q4fTKI0CAAAECBAgQIECAAAECBAgQIFAYgaIJAR8d0TPGPV9VtBCwMM13FQIECBAgQIAAAQIECBAgQIAAgXQICAHT0WdVEiBAgAABAgQIECBAgAABAgQIpFhACJji5iudAAECBAgQIECAAAECBAgQIEAgHQJFGQJ+tdctMe6khunogCoJECBAgAABAgQIECBAgAABAgQIbGeBIgkBF8WUCwfFb5Zmq20UXYdMivK227lyyxMgQIAAAQIECBAgQIAAAQIECBBIiUBxhICrHoryc++Kl7Po9drHFXeUxb/vlpIOKJMAAQIECBAgQIAAAQIECBAgQIDAdhYoghBwbbwy5dIoe2RZZal7fXdI/PL8r27nsi1PgAABAgQIECBAgAABAgQIECBAID0COzgEXBNLHr4xyqYuiJXrMuj1j4rLbr40ungdYHpOoEoJECBAgAABAgQIECBAgAABAgS2u8COCwE/fjyGlt4Rz6z5rKrI+q2i15Cr4szWu273ol2AAAECBAgQIECAAAECBAgQIECAQJoEdlwIGC/GuD4/i0c/qR8tjjotruh/XBy0R5ro1UqAAAECBAgQIECAAAECBAgQIECgMAI7MAQsTIGuQoAAAQIECBAgQIAAAQIECBAgQCDtAkLAtJ8A9RMgQIAAAQIECBAgQIAAAQIECCReQAiY+BYrkAABAgQIECBAgAABAgQIECBAIO0CQsC0nwD1EyBAgAABAgQIECBAgAABAgQIJF5ACJj4FiuQAAECBAgQIECAAAECBAgQIEAg7QJCwLSfAPUTIECAAAECBAgQIECAAAECBAgkXkAImPgWK5AAAQIECBAgQIAAAQIECBAgQCDtAkLAtJ8A9RMgQIAAAQIECBAgQIAAAQIECCReQAiY+BYrkAABAgQIECBAgAABAgQIECBAIO0CQsC0nwD1EyBAgAABAgQIECBAgAABAgQIJF5ACJj4FiuQAAECBAgQIECAAAECBAgQIEAg7QJCwLSfAPUTIECAAAECBAgQIECAAAECBAgkXkAImPgWK5AAAQIECBAgQIAAAQIECBAgQCDtAkLAtJ8A9RMgQIAAAQIECBAgQIAAAQIECCReQAiY+BYrkAABAgQIECBAgAABAgQIECBAIO0CQsC0nwD1EyBAgAABAgQIECBAgAABAgQIJF7g/wEN2D3ga2BfhQAAAABJRU5ErkJggg==;" vertex="1" parent="1">
          <mxGeometry x="100" y="140" width="251" height="79.36" as="geometry" />
        </mxCell>
        <mxCell id="DuLk8FnAJe3swuebrGKU-18" value="" style="endArrow=classic;html=1;rounded=0;exitX=0.445;exitY=0.958;exitDx=0;exitDy=0;exitPerimeter=0;entryX=0.5;entryY=0;entryDx=0;entryDy=0;" edge="1" parent="1" source="DuLk8FnAJe3swuebrGKU-15" target="iqdBXL-8VNj3FP1n8Vjj-1">
          <mxGeometry width="50" height="50" relative="1" as="geometry">
            <mxPoint x="210" y="260" as="sourcePoint" />
            <mxPoint x="260" y="210" as="targetPoint" />
          </mxGeometry>
        </mxCell>
      </root>
    </mxGraphModel>
  </diagram>
</mxfile>
